<?xml version="1.0" standalone="no"?>
<!DOCTYPE svg PUBLIC "-//W3C//DTD SVG 20010904//EN"
 "http://www.w3.org/TR/2001/REC-SVG-20010904/DTD/svg10.dtd">
<svg version="1.0" xmlns="http://www.w3.org/2000/svg"
 width="140.000000pt" height="44.000000pt" viewBox="0 0 140.000000 44.000000"
 preserveAspectRatio="xMidYMid meet">
<metadata>
Created by potrace 1.15, written by Peter Selinger 2001-2017
</metadata>
<g transform="translate(0.000000,44.000000) scale(0.100000,-0.100000)"
fill="#000000" stroke="none">
<path d="M1370 371 l0 -70 -27 15 c-64 33 -152 3 -179 -61 -18 -45 -18 -69 3
-112 31 -65 109 -91 173 -58 17 9 30 11 30 5 0 -5 7 -10 15 -10 13 0 15 27 15
180 0 153 -2 180 -15 180 -12 0 -15 -14 -15 -69z m-26 -107 c38 -39 36 -93 -5
-128 -41 -35 -83 -34 -120 3 -20 20 -29 39 -29 61 0 22 9 41 29 61 39 38 88
40 125 3z"/>
<path d="M500 365 c0 -34 -2 -35 -36 -35 -74 0 -124 -55 -124 -134 0 -39 6
-52 34 -84 32 -34 39 -37 89 -37 45 0 60 5 81 24 l26 24 0 -61 c0 -55 2 -62
20 -62 17 0 20 7 20 50 l0 51 30 -16 c63 -33 148 -5 174 57 12 28 14 29 20 11
22 -69 130 -106 187 -64 23 17 29 19 29 6 0 -8 7 -15 15 -15 12 0 15 20 15
116 0 104 -2 115 -17 113 -10 -2 -27 0 -38 4 -17 6 -20 14 -17 47 3 25 0 40
-7 40 -6 0 -11 -16 -11 -35 0 -34 -1 -35 -40 -35 -30 0 -48 -7 -74 -31 -19
-16 -38 -40 -42 -51 -6 -20 -7 -19 -20 10 -16 38 -68 72 -109 72 -26 0 -33 5
-44 35 -15 43 -26 44 -40 3 -13 -36 -8 -46 13 -29 11 9 15 8 19 -3 6 -16 -24
-29 -60 -26 -22 1 -23 -2 -23 -85 0 -65 -3 -86 -12 -82 -7 2 -24 -4 -37 -14
-24 -19 -76 -25 -98 -11 -9 5 11 31 62 82 41 41 75 79 75 85 0 6 -12 18 -27
27 -21 13 -23 18 -10 18 9 0 17 5 17 10 0 6 -4 10 -10 10 -5 0 -10 11 -10 25
0 14 -4 25 -10 25 -5 0 -10 -16 -10 -35z m261 -104 c39 -40 39 -82 0 -122 -20
-20 -39 -29 -61 -29 -22 0 -41 9 -61 29 -37 37 -38 79 -3 120 35 42 84 43 125
2z m252 9 c34 -27 43 -70 23 -109 -45 -86 -166 -58 -166 39 0 78 82 118 143
70z"/>
<path d="M60 318 c-14 -6 -33 -10 -42 -9 -17 2 -18 -11 -18 -153 0 -132 2
-156 15 -156 11 0 15 12 15 50 l0 51 30 -16 c63 -33 141 -8 173 56 l17 34 0
-47 c0 -41 3 -48 20 -48 18 0 20 7 20 75 0 67 3 79 25 100 13 14 29 25 35 25
13 0 13 27 0 35 -6 4 -22 -1 -35 -9 -14 -9 -25 -12 -25 -6 0 5 -9 10 -20 10
-17 0 -20 -7 -20 -42 l-1 -43 -14 32 c-26 61 -109 89 -175 61z m121 -57 c20
-20 29 -39 29 -61 0 -22 -9 -41 -29 -61 -37 -37 -79 -38 -120 -3 -25 20 -31
34 -31 64 0 83 92 120 151 61z"/>
</g>
</svg>
