<?xml version="1.0" standalone="no"?>
<!DOCTYPE svg PUBLIC "-//W3C//DTD SVG 1.1//EN" "http://www.w3.org/Graphics/SVG/1.1/DTD/svg11.dtd" >
<svg xmlns="http://www.w3.org/2000/svg">
<metadata></metadata>
<defs>
<font id="burberry_capitals_smallRg" horiz-adv-x="2506" >
<font-face units-per-em="2048" ascent="1638" descent="-410" />
<missing-glyph horiz-adv-x="1024" />
<glyph horiz-adv-x="682" />
<glyph horiz-adv-x="0" />
<glyph horiz-adv-x="0" />
<glyph unicode="&#xd;" horiz-adv-x="1024" />
<glyph unicode=" "  horiz-adv-x="1024" />
<glyph unicode="&#x09;" horiz-adv-x="1024" />
<glyph unicode="&#xa0;" horiz-adv-x="1024" />
<glyph unicode="!" horiz-adv-x="995" d="M287 1221q0 86 65.5 135t145.5 49t145.5 -49t65.5 -135q0 -51 -15.5 -115t-38.5 -132.5t-46 -147.5t-39.5 -187.5t-18.5 -224.5h-107q-2 142 -27 275t-54 215t-52.5 169t-23.5 148zM295 127q0 69 56 116.5t147 47.5q93 0 148.5 -47t55.5 -117q0 -73 -55 -119.5 t-149 -46.5t-148.5 46.5t-54.5 119.5z" />
<glyph unicode="&#x22;" horiz-adv-x="1521" d="M307 1260q0 56 47.5 100.5t137.5 44.5q89 0 135.5 -44t46.5 -101q0 -51 -18.5 -112.5t-42 -116t-46 -143t-28.5 -183.5h-99q-6 95 -28 183.5t-45 143t-41.5 116t-18.5 112.5zM848 1260q0 56 47.5 100.5t136.5 44.5t135.5 -44t46.5 -101q0 -51 -18.5 -112.5t-42 -116 t-46 -143t-28.5 -183.5h-98q-6 95 -28 183.5t-45 143t-41.5 116t-18.5 112.5z" />
<glyph unicode="#" horiz-adv-x="2068" d="M362 328v116h316l108 332h-249v117h288l90 272h127l-92 -272h348l91 272h127l-93 -272h281v-117h-318l-108 -332h252v-116h-291l-88 -273h-127l90 273h-348l-88 -273h-127l90 273h-279zM805 444h346l109 332h-347z" />
<glyph unicode="$" horiz-adv-x="2068" d="M297 262q0 93 52 138.5t136 45.5q75 0 123.5 -37.5t48.5 -84.5q0 -30 -9 -50.5t-22 -30.5t-26 -17.5t-22 -18t-9 -25.5q0 -10 11 -22.5t39.5 -28.5t71.5 -29t115 -22.5t161 -11.5v467l-199 34q-453 78 -453 385q0 78 38.5 151t114.5 135.5t205 102.5t294 46v176h131v-176 q303 -10 459.5 -94.5t156.5 -192.5q0 -83 -53 -125.5t-133 -42.5q-72 0 -120 37t-48 84q0 36 12 58.5t26 29.5t26 20t12 31q0 9 -31 26.5t-114 36.5t-193 23v-438l176 -29q500 -85 500 -401q0 -85 -38 -160t-116 -137.5t-212 -103t-310 -48.5v-174h-131v170 q-333 6 -501.5 94.5t-168.5 208.5zM584 1085q0 -30 5.5 -52t24 -51.5t64.5 -52t117 -34.5l172 -31v416q-95 -5 -167.5 -21.5t-112 -37t-64 -47t-32 -47.5t-7.5 -42zM1098 70q100 5 176.5 21.5t119.5 38t69.5 50t35 53t8.5 50.5q0 72 -48.5 123.5t-180.5 74.5l-180 31v-442z " />
<glyph unicode="%" horiz-adv-x="2672" d="M205 1022q0 87 42 162.5t109.5 125t151.5 77.5t170 28q114 0 220.5 -46.5t178.5 -138.5t72 -208q0 -71 -27.5 -134t-74 -108.5t-107 -78.5t-128 -49.5t-134.5 -16.5q-68 0 -136 16.5t-128.5 49.5t-107 79t-74 108.5t-27.5 133.5zM451 1022q0 -163 61 -237t166 -74 q111 0 168 71t57 240q0 90 -16.5 153.5t-47.5 98.5t-70 50t-91 15q-227 0 -227 -317zM739 -39l1037 1430h159l-1034 -1430h-162zM1524 358q0 116 71.5 208t178.5 139t223 47q84 0 167.5 -28t151.5 -77.5t110 -125.5t42 -163q0 -71 -27.5 -134t-74 -108.5t-107 -78.5 t-128 -49.5t-134.5 -16.5q-68 0 -136 16.5t-128.5 49.5t-107 79t-74 108.5t-27.5 133.5zM1769 358q0 -163 61 -237t167 -74q111 0 168 71t57 240q0 90 -16.5 153.5t-47.5 99t-70 50.5t-91 15q-228 0 -228 -318z" />
<glyph unicode="&#x26;" horiz-adv-x="2693" d="M283 367q0 65 26.5 121t71.5 100t115.5 84t148 71t178.5 62q-78 139 -78 235q0 112 58.5 196t153.5 125.5t212 41.5q164 0 253 -76.5t89 -191.5q0 -103 -62.5 -178t-217.5 -134q34 -40 233 -254q152 -167 310 -286q172 152 172 385v32h-265v103h650v-103h-263v-41 q0 -39 -9 -86t-29 -106.5t-62 -125t-100 -122.5q135 -84 229 -84q108 0 172 76l12 16l76 -55l-10 -14q-77 -110 -163.5 -153.5t-252.5 -43.5q-172 0 -346 82q-226 -82 -520 -82q-280 0 -455 47.5t-251 135.5t-76 223zM627 408q0 -90 36.5 -156t104 -104.5t153.5 -57 t193 -18.5q170 0 342 47q-112 75 -256 225q-194 194 -315 367q-144 -60 -201 -132.5t-57 -170.5zM1040 1153q0 -90 123 -246q124 49 178 103.5t54 126.5q0 78 -51.5 122t-133.5 44q-78 0 -124 -39.5t-46 -110.5z" />
<glyph unicode="'" horiz-adv-x="980" d="M307 1260q0 56 47.5 100.5t137.5 44.5q89 0 135.5 -44t46.5 -101q0 -51 -18.5 -112.5t-42 -116t-46 -143t-28.5 -183.5h-99q-6 95 -28 183.5t-45 143t-41.5 116t-18.5 112.5z" />
<glyph unicode="(" horiz-adv-x="1193" d="M287 676q0 595 684 934l59 -97q-44 -25 -74.5 -44.5t-78.5 -59t-81.5 -80.5t-72 -107t-62 -141t-39.5 -179.5t-16 -225.5t16 -225.5t39.5 -179.5t62 -141t72 -107.5t81.5 -81t78.5 -59t74.5 -44.5l-59 -96q-684 339 -684 934z" />
<glyph unicode=")" horiz-adv-x="1193" d="M164 -162q44 25 74.5 44.5t78.5 59t81.5 81t72 107.5t62 141t39.5 179.5t16 225.5t-16 225.5t-39.5 179.5t-62 141t-72 107t-81.5 80.5t-78.5 59t-74.5 44.5l59 97q684 -339 684 -934t-684 -934z" />
<glyph unicode="*" horiz-adv-x="1314" d="M205 829q0 45 25 78t79 33q15 0 58.5 -6.5t86 -1t105.5 30.5l35 14l-35 14q-63 25 -105.5 30.5t-86 -1t-58.5 -6.5q-54 0 -79 32.5t-25 77.5q0 42 33 85.5t88 43.5q40 0 64.5 -14t38.5 -37.5t28 -49t44.5 -54t76.5 -47.5l45 -19v47q0 32 -15 65t-32.5 55.5t-32.5 52.5 t-15 57q0 34 36 65t93 31t93 -31t36 -65t-23.5 -71.5t-47 -78t-23.5 -80.5v-47l45 19q46 19 76.5 47.5t44.5 54t28 49t38.5 37.5t64.5 14q55 0 88 -43.5t33 -85.5q0 -45 -25 -77.5t-79 -32.5q-15 0 -58.5 6.5t-86 1t-105.5 -30.5l-35 -14l35 -14q63 -25 105.5 -30.5t86 1 t58.5 6.5q54 0 79 -33t25 -78q0 -42 -33 -85.5t-88 -43.5q-40 0 -64.5 14t-38.5 37.5t-28 49.5t-44.5 54.5t-76.5 47.5l-45 19v-48q0 -40 23.5 -80.5t47 -77.5t23.5 -71t-36 -65t-93 -31t-93 31t-36 65q0 27 15 57t32.5 52.5t32.5 55t15 64.5v48l-45 -19 q-46 -19 -76.5 -47.5t-44.5 -54.5t-28 -49.5t-38.5 -37.5t-64.5 -14q-55 0 -88 43.5t-33 85.5z" />
<glyph unicode="+" horiz-adv-x="2068" d="M461 461v141h502v410h141v-410h502v-141h-502v-410h-141v410h-502z" />
<glyph unicode="," horiz-adv-x="980" d="M276 119q0 74 57.5 121t151.5 47q103 0 166.5 -70.5t63.5 -200.5q0 -133 -96.5 -241t-309.5 -160l-24 88q134 40 200 105.5t66 142.5q0 27 -6 39q-16 -11 -47 -20t-62 -9q-69 0 -114.5 42t-45.5 116z" />
<glyph unicode="-" horiz-adv-x="1273" d="M287 549v205h700v-205h-700z" />
<glyph unicode="." horiz-adv-x="980" d="M272 133q0 74 57.5 121t162.5 47q102 0 159.5 -47.5t57.5 -120.5q0 -76 -57 -124t-160 -48q-105 0 -162.5 48t-57.5 124z" />
<glyph unicode="/" horiz-adv-x="1101" d="M16 -53l912 1458h157l-911 -1458h-158z" />
<glyph unicode="0" horiz-adv-x="2097" d="M256 676q0 163 68.5 303t181 231.5t254 143t289.5 51.5t289.5 -51.5t253.5 -143t180.5 -231.5t68.5 -303t-68.5 -303t-180.5 -231.5t-253.5 -143t-289.5 -51.5t-289.5 51.5t-254 143t-181 231.5t-68.5 303zM637 676q0 -621 412 -621q411 0 411 621q0 306 -100 463 t-311 157q-412 0 -412 -620z" />
<glyph unicode="1" horiz-adv-x="1638" d="M287 0v109h379v1134h-379v109h760v-1243h376v-109h-1136z" />
<glyph unicode="2" horiz-adv-x="1964" d="M215 0v109l496 340q112 77 181.5 127.5t142.5 112t112.5 109.5t64.5 103.5t25 110.5q0 140 -107.5 212t-289.5 72q-81 0 -159 -18t-130 -45t-83.5 -56.5t-31.5 -52.5q0 -14 11 -19t36 -5q150 0 150 -139q0 -65 -51.5 -106.5t-130.5 -41.5q-107 0 -162.5 55.5t-55.5 153.5 q0 51 28.5 104.5t86 103t135 89t184.5 63t226 23.5q193 0 355 -46.5t263 -139t101 -215.5q0 -70 -28 -131t-60.5 -102t-117 -97t-135 -84t-177.5 -94q-4 -3 -7 -4.5t-6 -2.5l-438 -227h860v189h133v-451h-1421z" />
<glyph unicode="3" horiz-adv-x="1959" d="M225 276q0 81 51.5 135t137.5 54t135 -38.5t49 -107.5q0 -37 -14.5 -63.5t-31.5 -37t-31.5 -23.5t-14.5 -27q0 -41 123.5 -75t259.5 -34q219 0 331.5 69t112.5 237q0 59 -19.5 105.5t-56.5 77t-83 51.5t-107.5 32t-121 15.5t-132.5 4.5h-178v109h180q225 0 345 71 t120 209q0 117 -109 185.5t-301 68.5q-118 0 -235 -36t-117 -74q0 -10 14 -19t31 -17t31 -32t14 -59q0 -68 -47.5 -103.5t-126.5 -35.5q-82 0 -126 42t-44 117q0 59 46 117t128.5 105.5t210.5 76.5t277 29q138 0 262 -21t225.5 -61.5t161 -108.5t59.5 -155q0 -63 -28.5 -117 t-71.5 -90t-100 -63t-109 -41t-102 -21v-18q85 -5 165 -26.5t153.5 -61t118 -106.5t44.5 -153q0 -88 -50.5 -160.5t-132 -118.5t-188 -77.5t-213.5 -45t-215 -13.5q-138 0 -253.5 20.5t-192.5 54.5t-131 77.5t-78.5 88t-24.5 88.5z" />
<glyph unicode="4" horiz-adv-x="2084" d="M184 385v102l1008 865h301v-850h276v-117h-276v-276h287v-109h-969v109h317v276h-944zM377 502h751v639z" />
<glyph unicode="5" horiz-adv-x="1916" d="M215 252q0 82 52.5 131t140.5 49q75 0 123.5 -35.5t48.5 -95.5q0 -29 -8 -50t-19.5 -31.5t-23 -19t-19.5 -19t-8 -25.5q0 -34 116.5 -67.5t255.5 -33.5q62 0 118.5 7.5t119 30t107.5 59t74.5 100t29.5 147.5q0 83 -29.5 145.5t-73.5 97.5t-105.5 56t-114 27t-111.5 6 q-99 0 -231.5 -27t-182.5 -65h-117v713h1063v123h119v-385h-1059v-326q56 27 198 51.5t279 24.5q105 0 208 -16t198 -51t168 -84.5t116.5 -121.5t43.5 -157q0 -112 -71 -202.5t-189 -146t-261.5 -85t-296.5 -29.5q-188 0 -340 41t-235.5 111t-83.5 153z" />
<glyph unicode="6" horiz-adv-x="1951" d="M246 553q0 255 164 450t448 298.5t643 103.5v-115q-341 0 -563.5 -131.5t-298.5 -353.5l23 -14q7 6 23.5 16.5t54 28t82 32t111.5 25t138 10.5q303 0 484.5 -123t181.5 -340q0 -97 -52 -186t-145.5 -157.5t-235 -109t-309.5 -40.5q-185 0 -329.5 46.5t-235.5 129 t-137.5 191.5t-46.5 239zM623 422q0 -97 30 -170t83 -115t118 -62t143 -20t143 20t118.5 62t83.5 115t30 170t-30 170t-83 115.5t-119 63t-143 20.5q-74 0 -138.5 -20.5t-118.5 -63t-85.5 -115.5t-31.5 -170z" />
<glyph unicode="7" horiz-adv-x="1775" d="M225 901v451h1336v-95l-340 -413q-232 -283 -232 -416q0 -58 30 -141.5t30 -145.5q0 -90 -55.5 -142t-149.5 -52q-105 0 -161 60t-56 155q0 89 56.5 204t213.5 289l389 435h-928v-189h-133z" />
<glyph unicode="8" horiz-adv-x="2105" d="M256 344q0 80 41.5 144t112.5 104.5t154 64.5t177 33v19q-115 16 -202.5 55t-143 107.5t-55.5 158.5q0 112 101 199t264.5 131.5t357.5 44.5t357.5 -44.5t264.5 -131.5t101 -199q0 -90 -55.5 -158.5t-143.5 -107.5t-203 -55v-19q94 -9 174 -33t147 -64.5t105.5 -104.5 t38.5 -144q0 -121 -104 -212t-281.5 -138t-400.5 -47q-224 0 -406 46.5t-291.5 138t-109.5 212.5zM623 348q0 -78 33 -135.5t93 -91.5t138.5 -50t175.5 -16q420 0 420 293q0 78 -31.5 135.5t-89.5 90t-131.5 48t-167.5 15.5t-170.5 -15.5t-138.5 -48t-96.5 -90t-34.5 -135.5 zM688 1020q0 -73 30 -127t83 -85t118 -45.5t144 -14.5t144 14.5t118 45.5t83 85t30 127q0 276 -375 276t-375 -276z" />
<glyph unicode="9" horiz-adv-x="1951" d="M205 911q0 97 52 186t145 157.5t234.5 109.5t309.5 41q185 0 330 -46.5t235.5 -129t137.5 -191.5t47 -239q0 -191 -95.5 -351.5t-262.5 -270t-398.5 -170t-499.5 -60.5v114q340 0 563.5 131.5t299.5 354.5l-23 14q-7 -6 -23.5 -16.5t-54.5 -28t-82.5 -32t-111.5 -25 t-138 -10.5q-303 0 -484 122.5t-181 339.5zM569 930q0 -97 30 -170t83 -115.5t119 -63t143 -20.5q58 0 111 12.5t102 40.5t84.5 70t56.5 105t21 141q0 97 -30 169.5t-83.5 114.5t-118.5 62t-143 20t-143 -20t-118.5 -62t-83.5 -114.5t-30 -169.5z" />
<glyph unicode=":" horiz-adv-x="980" d="M272 133q0 74 57.5 121t162.5 47q102 0 159.5 -47.5t57.5 -120.5q0 -76 -57 -124t-160 -48q-105 0 -162.5 48t-57.5 124zM272 850q0 74 57.5 121t162.5 47q102 0 159.5 -47.5t57.5 -120.5q0 -76 -57 -124t-160 -48q-105 0 -162.5 48t-57.5 124z" />
<glyph unicode=";" horiz-adv-x="980" d="M272 850q0 74 57.5 121t162.5 47q102 0 159.5 -47.5t57.5 -120.5q0 -76 -57 -124t-160 -48q-105 0 -162.5 48t-57.5 124zM276 119q0 74 57.5 121t151.5 47q103 0 166.5 -70.5t63.5 -200.5q0 -133 -96.5 -241t-309.5 -160l-24 88q134 40 200 105.5t66 142.5q0 27 -6 39 q-16 -11 -47 -20t-62 -9q-69 0 -114.5 42t-45.5 116z" />
<glyph unicode="&#x3c;" horiz-adv-x="2068" d="M512 465v139l1042 424v-156l-837 -337l837 -338v-156z" />
<glyph unicode="=" horiz-adv-x="2068" d="M461 231v142h1145v-142h-1145zM461 690v141h1145v-141h-1145z" />
<glyph unicode="&#x3e;" horiz-adv-x="2068" d="M512 41v156l838 338l-838 337v156l1042 -424v-139z" />
<glyph unicode="?" horiz-adv-x="1781" d="M225 1079q0 94 91 170t233 116t301 40q200 0 353.5 -46t243 -139.5t89.5 -222.5q0 -126 -70 -223t-179.5 -145.5t-237.5 -48.5q-83 0 -153 15t-91 28v-217h-111v389h94q11 -107 175 -107q59 0 102.5 24.5t68 69t35.5 97.5t11 118q0 150 -80.5 224.5t-265.5 74.5 q-125 0 -214.5 -29.5t-89.5 -82.5q0 -22 12 -39t26 -27.5t26 -33t12 -54.5q0 -53 -46 -92t-132 -39q-95 0 -149 47.5t-54 132.5zM547 121q0 69 53.5 113.5t151.5 44.5q95 0 148.5 -44.5t53.5 -113.5q0 -70 -53.5 -115t-148.5 -45q-98 0 -151.5 45t-53.5 115z" />
<glyph unicode="@" horiz-adv-x="2521" d="M274 645q0 221 133 395t365.5 269.5t523.5 95.5q120 0 232 -15t217.5 -45.5t192.5 -81t152.5 -117t101.5 -159t36 -201.5q0 -100 -37 -182.5t-98 -137.5t-142 -93t-167.5 -55t-175.5 -17q-284 0 -295 154q-54 -64 -129.5 -96.5t-153.5 -32.5q-147 0 -217 70t-70 175 q0 76 40 156t108 145.5t167 107.5t208 42q77 0 122.5 -18t63.5 -41l16 43h254l-143 -388q-37 -99 -37 -131q0 -67 115 -67q197 0 314.5 102t117.5 264q0 127 -61 224t-170.5 156t-250.5 88.5t-311 29.5q-198 0 -363 -50t-274.5 -136t-170 -203t-60.5 -250q0 -273 220.5 -425 t637.5 -152q342 0 584 133l57 -115q-131 -67 -298.5 -103t-342.5 -36q-231 0 -416.5 43.5t-318.5 129t-205 219t-72 306.5zM999 545q0 -99 91 -99q47 0 90 21.5t74 57t53 72t36 75.5l68 180q-4 30 -32.5 53t-84.5 23q-55 0 -104.5 -28.5t-83 -72.5t-58.5 -96.5t-37 -100.5 t-12 -85z" />
<glyph unicode="A" horiz-adv-x="2430" d="M102 0v109h258l758 1286h127l815 -1286h269v-109h-1000v109h311l-167 264h-811l-154 -264h258v-109h-664zM727 485h674l-350 553z" />
<glyph unicode="B" horiz-adv-x="2568" d="M287 0v109h334v1134h-334v109h1222q153 0 271.5 -21.5t187 -55t111.5 -78.5t58 -86t15 -85q0 -237 -407 -293v-26q516 -57 516 -336q0 -79 -43.5 -145t-131 -117t-232.5 -80t-334 -29h-1233zM1004 109h471q201 0 293 63.5t92 208.5q0 143 -98.5 209.5t-311.5 66.5h-446 v-548zM1004 766h458q165 0 242.5 59.5t77.5 180.5t-76.5 179t-239.5 58h-462v-477z" />
<glyph unicode="C" horiz-adv-x="2375" d="M287 676q0 128 51.5 243.5t143.5 203t214 151.5t267.5 97.5t300.5 33.5q119 0 239 -20t197 -40t92 -20q55 0 66 74h96v-535h-101q-5 129 -79.5 227.5t-205 151.5t-298.5 53q-269 0 -413 -158t-144 -462q0 -300 149.5 -460.5t411.5 -160.5q279 0 444 117t168 324h101v-555 h-101q-5 43 -21.5 64.5t-52.5 21.5q-12 0 -94.5 -20t-208 -40t-241.5 -20q-284 0 -507 90t-348.5 256.5t-125.5 382.5z" />
<glyph unicode="D" horiz-adv-x="2572" d="M287 0v109h334v1134h-334v109h987q306 0 536.5 -85t353 -238t122.5 -353t-122.5 -353t-353 -238t-536.5 -85h-987zM1008 109h292q154 0 264.5 39t176 114.5t95.5 177.5t30 236t-30 236t-95.5 177.5t-176 114.5t-264.5 39h-292v-1134z" />
<glyph unicode="E" horiz-adv-x="2629" d="M287 0v109h334v1134h-334v109h1870v-467h-101q0 88 -24 152t-79.5 111.5t-150.5 71t-231 23.5h-563v-498h249q161 0 216 49.5t55 190.5h96v-586h-96q0 141 -55 190.5t-216 49.5h-249v-530h639q288 0 411 94.5t123 300.5h100v-504h-1994z" />
<glyph unicode="F" horiz-adv-x="2371" d="M287 0v109h334v1134h-334v109h1839v-467h-101q0 88 -24 152t-79.5 111.5t-150.5 71t-231 23.5h-532v-498h270q161 0 215.5 49t54.5 191h97v-586h-97q0 142 -54.5 191t-215.5 49h-270v-530h415v-109h-1136z" />
<glyph unicode="G" horiz-adv-x="2553" d="M287 676q0 159 80.5 296.5t216.5 231.5t319 147.5t385 53.5q114 0 233.5 -20t196.5 -40t90 -20q33 0 47.5 16.5t20.5 57.5h96v-508h-96q-9 77 -56 150t-122 129.5t-182.5 91t-227.5 34.5q-284 0 -429.5 -150t-145.5 -470q0 -160 40 -281t113 -194.5t170 -109.5t217 -36 q151 0 259 36t170.5 116t62.5 201v145h-334v109h887v-109h-211v-553h-111q0 44 -18 63t-55 19q-23 0 -89.5 -21t-144 -46.5t-199 -46.5t-239.5 -21q-186 0 -358 54t-301.5 148t-207 231.5t-77.5 295.5z" />
<glyph unicode="H" horiz-adv-x="2908" d="M287 0v109h334v1134h-334v109h999v-109h-278v-495h893v495h-279v109h999v-109h-333v-1134h333v-109h-999v109h279v526h-893v-526h278v-109h-999z" />
<glyph unicode="I" horiz-adv-x="1628" d="M287 0v109h334v1134h-334v109h1054v-109h-333v-1134h333v-109h-1054z" />
<glyph unicode="J" horiz-adv-x="2052" d="M195 307q0 92 65 141.5t158 49.5q84 0 133 -41t49 -95q0 -29 -8 -48.5t-20 -29.5t-24 -19t-20 -24t-8 -38q0 -53 85 -90t198 -37q168 0 245.5 53t77.5 158v956h-333v109h1054v-109h-334v-842q0 -208 -178.5 -321t-531.5 -113q-176 0 -317.5 49.5t-216 126.5t-74.5 164z " />
<glyph unicode="K" horiz-adv-x="2768" d="M287 0v109h334v1134h-334v109h1054v-109h-333v-549l913 549h-233v109h782v-109h-307l-570 -342l760 -792h313v-109h-1075v109h248l-571 598l-260 -156v-442h323v-109h-1044z" />
<glyph unicode="L" horiz-adv-x="2301" d="M287 0v109h334v1134h-334v109h1054v-109h-333v-1134h399q112 0 188.5 6t147 22.5t114 46.5t76.5 78.5t47.5 117.5t16.5 165h100v-545h-1810z" />
<glyph unicode="M" horiz-adv-x="3178" d="M287 0v109h334v1134h-334v109h782l528 -994l529 994h766v-109h-334v-1134h334v-109h-1022v109h307v1073l-651 -1215h-125l-649 1215v-1073h307v-109h-772z" />
<glyph unicode="N" horiz-adv-x="2605" d="M287 0v109h303v1134h-303v109h729l950 -899v790h-307v109h741v-109h-303v-1288h-131l-1245 1190v-1036h307v-109h-741z" />
<glyph unicode="O" d="M287 676q0 161 81.5 301t215.5 235t308.5 149t360.5 54q154 0 298.5 -34t265 -99.5t211.5 -154t141.5 -205t50.5 -246.5q0 -161 -81.5 -301t-216 -235t-309 -149t-360.5 -54q-193 0 -368.5 54t-308 149t-211 234.5t-78.5 301.5zM713 676q0 -143 31.5 -257t96 -198.5 t169 -130t243.5 -45.5t244 45.5t169.5 130t96 198.5t31.5 257t-31.5 257t-96 198.5t-169.5 130t-244 45.5t-243.5 -45.5t-169 -130t-96 -198.5t-31.5 -257z" />
<glyph unicode="P" horiz-adv-x="2402" d="M287 0v109h334v1134h-334v109h1132q347 0 542.5 -116t195.5 -302q0 -202 -224 -314t-612 -112q-67 0 -133 3.5t-118 7.5t-66 5v-415h368v-109h-1085zM1004 635q7 -1 44.5 -4.5t68.5 -6.5t87.5 -5.5t114.5 -2.5q82 0 146 8.5t120.5 30t94 56.5t58.5 90.5t21 128.5 q0 88 -30.5 150.5t-87.5 97t-129 50t-166 15.5h-342v-608z" />
<glyph unicode="Q" d="M287 680q0 129 52.5 245.5t145 204.5t214 153t264 98.5t290.5 33.5q154 0 298.5 -33.5t265 -98.5t211.5 -153t141.5 -204t50.5 -246q0 -128 -51.5 -243t-142 -202.5t-210.5 -152t-260 -99t-286 -36.5l-367 -162q88 14 187 14q162 0 278.5 -29t241.5 -94q68 -35 116 -47 t111 -12q61 0 124 24t93.5 45t44.5 35l68 -75q-6 -8 -28.5 -27t-68.5 -46.5t-102 -52t-136.5 -42t-164.5 -17.5q-281 0 -461 103q-72 41 -111.5 61t-99 42.5t-119.5 28.5q-36 5 -79 5q-26 0 -54 -2l-65 -4l-27 86l404 182q-217 31 -389.5 126.5t-275.5 249.5t-103 341z M713 680q0 -143 31.5 -256t96 -196.5t169 -128t243.5 -44.5t244 44.5t169.5 128t96 196.5t31.5 256t-31.5 256.5t-96 197t-169.5 128.5t-244 45t-243.5 -45t-169 -128.5t-96 -197t-31.5 -256.5z" />
<glyph unicode="R" horiz-adv-x="2674" d="M287 0v109h334v1134h-334v109h1216q156 0 276.5 -21t193 -54t118.5 -78t63 -88t17 -89q0 -247 -440 -326v-26q116 -13 200 -38t150 -69.5t99.5 -114.5t33.5 -167v-37q0 -92 39.5 -130t120.5 -38q60 0 135 43l43 -78q-49 -34 -129.5 -53t-151.5 -19q-227 0 -345 92 t-118 273v20q0 138 -86.5 200t-267.5 62h-450v-507h319v-109h-1036zM1004 723h434q170 0 254 65t84 199q0 256 -334 256h-438v-520z" />
<glyph unicode="S" horiz-adv-x="2308" d="M344 985q0 132 100 228.5t266.5 144t376.5 47.5q123 0 259.5 -22.5t230 -45t111.5 -22.5q28 0 43.5 23.5t15.5 60.5h96v-467h-96q-9 66 -61.5 130.5t-136.5 116.5t-207 84.5t-261 32.5q-196 0 -304.5 -52t-108.5 -138q0 -57 52 -98t176.5 -80t356.5 -86q182 -37 307 -73 t208.5 -75t129.5 -87.5t64 -101t18 -124.5q0 -137 -113.5 -237t-294.5 -148.5t-403 -48.5q-138 0 -286.5 22t-247 44t-115.5 22q-36 0 -56 -22.5t-20 -65.5h-96v532h96q27 -193 224 -308.5t512 -115.5q235 0 344.5 50t109.5 151q0 35 -10.5 61t-42.5 55t-90 54t-155.5 52 t-235.5 54q-293 58 -454 117.5t-231.5 138t-70.5 197.5z" />
<glyph unicode="T" horiz-adv-x="2394" d="M246 844v508h1902v-508h-100q0 93 -20 161.5t-68 124.5t-135.5 84.5t-214.5 28.5h-219v-1134h333v-109h-1054v109h334v1134h-220q-127 0 -214.5 -28.5t-135.5 -84.5t-68 -124.5t-20 -161.5h-100z" />
<glyph unicode="U" horiz-adv-x="2631" d="M205 1243v109h1052v-109h-335v-711q0 -250 114 -364.5t381 -114.5q305 0 440.5 123.5t135.5 364.5v702h-307v109h741v-109h-303v-711q0 -92 -16 -168t-51.5 -144t-94.5 -119t-142 -88.5t-198 -56.5t-258 -19q-126 0 -228.5 11t-198.5 36.5t-167.5 70.5t-125.5 109.5 t-81.5 157.5t-27.5 210v711h-330z" />
<glyph unicode="V" horiz-adv-x="2390" d="M102 1243v109h1026v-109h-309l547 -899l512 899h-258v109h668v-109h-258l-738 -1268h-127l-794 1268h-269z" />
<glyph unicode="W" horiz-adv-x="3317" d="M102 1243v109h959v-109h-248l459 -844l325 643l-110 201h-227v109h927v-109h-268l465 -844l426 844h-258v109h663v-109h-258l-645 -1268h-127l-512 930l-473 -930h-127l-702 1268h-269z" />
<glyph unicode="X" horiz-adv-x="2539" d="M164 1243v109h1081v-109h-272l358 -377l430 377h-245v109h704v-109h-276l-529 -463l643 -671h318v-109h-1047v109h238l-420 438l-500 -438h289v-109h-748v109h277l600 524l-584 610h-317z" />
<glyph unicode="Y" horiz-adv-x="2295" d="M41 1243v109l1096 8v-109h-306l512 -553l469 545h-303v109h746v-109h-281l-573 -672v-462h332v-109h-1051v109h332v444l-641 690h-332z" />
<glyph unicode="Z" horiz-adv-x="2240" d="M287 0v98l1165 1145h-401q-108 0 -185.5 -5.5t-147.5 -20.5t-115 -41.5t-78.5 -68.5t-48.5 -100.5t-15 -138.5h-101v484h1561v-99l-1165 -1144h508q131 0 221.5 9.5t164.5 33t116.5 66.5t64.5 107.5t22 157.5h101v-483h-1667z" />
<glyph unicode="[" horiz-adv-x="1198" d="M338 -287v1925h696v-108h-395v-1708h395v-109h-696z" />
<glyph unicode="\" horiz-adv-x="1101" d="M16 1405h158l911 -1458h-157z" />
<glyph unicode="]" horiz-adv-x="1198" d="M164 -178h395v1708h-395v108h696v-1925h-696v109z" />
<glyph unicode="^" horiz-adv-x="1392" d="M164 487l461 760h102l502 -760h-352l-297 467l-295 -467h-121z" />
<glyph unicode="_" horiz-adv-x="1024" d="M0 -236h1024v-133h-1024v133z" />
<glyph unicode="`" horiz-adv-x="1212" d="M199 1788q0 44 33 72t81 28q72 0 213 -69l486 -234l-39 -90l-557 147q-42 11 -64.5 18t-56.5 21t-51.5 27t-31 34t-13.5 46z" />
<glyph unicode="a" horiz-adv-x="2430" d="M102 0v109h258l758 1286h127l815 -1286h269v-109h-1000v109h311l-167 264h-811l-154 -264h258v-109h-664zM727 485h674l-350 553z" />
<glyph unicode="b" horiz-adv-x="2568" d="M287 0v109h334v1134h-334v109h1222q153 0 271.5 -21.5t187 -55t111.5 -78.5t58 -86t15 -85q0 -237 -407 -293v-26q516 -57 516 -336q0 -79 -43.5 -145t-131 -117t-232.5 -80t-334 -29h-1233zM1004 109h471q201 0 293 63.5t92 208.5q0 143 -98.5 209.5t-311.5 66.5h-446 v-548zM1004 766h458q165 0 242.5 59.5t77.5 180.5t-76.5 179t-239.5 58h-462v-477z" />
<glyph unicode="c" horiz-adv-x="2375" d="M287 676q0 128 51.5 243.5t143.5 203t214 151.5t267.5 97.5t300.5 33.5q119 0 239 -20t197 -40t92 -20q55 0 66 74h96v-535h-101q-5 129 -79.5 227.5t-205 151.5t-298.5 53q-269 0 -413 -158t-144 -462q0 -300 149.5 -460.5t411.5 -160.5q279 0 444 117t168 324h101v-555 h-101q-5 43 -21.5 64.5t-52.5 21.5q-12 0 -94.5 -20t-208 -40t-241.5 -20q-284 0 -507 90t-348.5 256.5t-125.5 382.5z" />
<glyph unicode="d" horiz-adv-x="2572" d="M287 0v109h334v1134h-334v109h987q306 0 536.5 -85t353 -238t122.5 -353t-122.5 -353t-353 -238t-536.5 -85h-987zM1008 109h292q154 0 264.5 39t176 114.5t95.5 177.5t30 236t-30 236t-95.5 177.5t-176 114.5t-264.5 39h-292v-1134z" />
<glyph unicode="e" horiz-adv-x="2629" d="M287 0v109h334v1134h-334v109h1870v-467h-101q0 88 -24 152t-79.5 111.5t-150.5 71t-231 23.5h-563v-498h249q161 0 216 49.5t55 190.5h96v-586h-96q0 141 -55 190.5t-216 49.5h-249v-530h639q288 0 411 94.5t123 300.5h100v-504h-1994z" />
<glyph unicode="f" horiz-adv-x="2371" d="M287 0v109h334v1134h-334v109h1839v-467h-101q0 88 -24 152t-79.5 111.5t-150.5 71t-231 23.5h-532v-498h270q161 0 215.5 49t54.5 191h97v-586h-97q0 142 -54.5 191t-215.5 49h-270v-530h415v-109h-1136z" />
<glyph unicode="g" horiz-adv-x="2553" d="M287 676q0 159 80.5 296.5t216.5 231.5t319 147.5t385 53.5q114 0 233.5 -20t196.5 -40t90 -20q33 0 47.5 16.5t20.5 57.5h96v-508h-96q-9 77 -56 150t-122 129.5t-182.5 91t-227.5 34.5q-284 0 -429.5 -150t-145.5 -470q0 -160 40 -281t113 -194.5t170 -109.5t217 -36 q151 0 259 36t170.5 116t62.5 201v145h-334v109h887v-109h-211v-553h-111q0 44 -18 63t-55 19q-23 0 -89.5 -21t-144 -46.5t-199 -46.5t-239.5 -21q-186 0 -358 54t-301.5 148t-207 231.5t-77.5 295.5z" />
<glyph unicode="h" horiz-adv-x="2908" d="M287 0v109h334v1134h-334v109h999v-109h-278v-495h893v495h-279v109h999v-109h-333v-1134h333v-109h-999v109h279v526h-893v-526h278v-109h-999z" />
<glyph unicode="i" horiz-adv-x="1628" d="M287 0v109h334v1134h-334v109h1054v-109h-333v-1134h333v-109h-1054z" />
<glyph unicode="j" horiz-adv-x="2052" d="M195 307q0 92 65 141.5t158 49.5q84 0 133 -41t49 -95q0 -29 -8 -48.5t-20 -29.5t-24 -19t-20 -24t-8 -38q0 -53 85 -90t198 -37q168 0 245.5 53t77.5 158v956h-333v109h1054v-109h-334v-842q0 -208 -178.5 -321t-531.5 -113q-176 0 -317.5 49.5t-216 126.5t-74.5 164z " />
<glyph unicode="k" horiz-adv-x="2768" d="M287 0v109h334v1134h-334v109h1054v-109h-333v-549l913 549h-233v109h782v-109h-307l-570 -342l760 -792h313v-109h-1075v109h248l-571 598l-260 -156v-442h323v-109h-1044z" />
<glyph unicode="l" horiz-adv-x="2301" d="M287 0v109h334v1134h-334v109h1054v-109h-333v-1134h399q112 0 188.5 6t147 22.5t114 46.5t76.5 78.5t47.5 117.5t16.5 165h100v-545h-1810z" />
<glyph unicode="m" horiz-adv-x="3178" d="M287 0v109h334v1134h-334v109h782l528 -994l529 994h766v-109h-334v-1134h334v-109h-1022v109h307v1073l-651 -1215h-125l-649 1215v-1073h307v-109h-772z" />
<glyph unicode="n" horiz-adv-x="2605" d="M287 0v109h303v1134h-303v109h729l950 -899v790h-307v109h741v-109h-303v-1288h-131l-1245 1190v-1036h307v-109h-741z" />
<glyph unicode="o" d="M287 676q0 161 81.5 301t215.5 235t308.5 149t360.5 54q154 0 298.5 -34t265 -99.5t211.5 -154t141.5 -205t50.5 -246.5q0 -161 -81.5 -301t-216 -235t-309 -149t-360.5 -54q-193 0 -368.5 54t-308 149t-211 234.5t-78.5 301.5zM713 676q0 -143 31.5 -257t96 -198.5 t169 -130t243.5 -45.5t244 45.5t169.5 130t96 198.5t31.5 257t-31.5 257t-96 198.5t-169.5 130t-244 45.5t-243.5 -45.5t-169 -130t-96 -198.5t-31.5 -257z" />
<glyph unicode="p" horiz-adv-x="2402" d="M287 0v109h334v1134h-334v109h1132q347 0 542.5 -116t195.5 -302q0 -202 -224 -314t-612 -112q-67 0 -133 3.5t-118 7.5t-66 5v-415h368v-109h-1085zM1004 635q7 -1 44.5 -4.5t68.5 -6.5t87.5 -5.5t114.5 -2.5q82 0 146 8.5t120.5 30t94 56.5t58.5 90.5t21 128.5 q0 88 -30.5 150.5t-87.5 97t-129 50t-166 15.5h-342v-608z" />
<glyph unicode="q" d="M287 680q0 129 52.5 245.5t145 204.5t214 153t264 98.5t290.5 33.5q154 0 298.5 -33.5t265 -98.5t211.5 -153t141.5 -204t50.5 -246q0 -128 -51.5 -243t-142 -202.5t-210.5 -152t-260 -99t-286 -36.5l-367 -162q88 14 187 14q162 0 278.5 -29t241.5 -94q68 -35 116 -47 t111 -12q61 0 124 24t93.5 45t44.5 35l68 -75q-6 -8 -28.5 -27t-68.5 -46.5t-102 -52t-136.5 -42t-164.5 -17.5q-281 0 -461 103q-72 41 -111.5 61t-99 42.5t-119.5 28.5q-36 5 -79 5q-26 0 -54 -2l-65 -4l-27 86l404 182q-217 31 -389.5 126.5t-275.5 249.5t-103 341z M713 680q0 -143 31.5 -256t96 -196.5t169 -128t243.5 -44.5t244 44.5t169.5 128t96 196.5t31.5 256t-31.5 256.5t-96 197t-169.5 128.5t-244 45t-243.5 -45t-169 -128.5t-96 -197t-31.5 -256.5z" />
<glyph unicode="r" horiz-adv-x="2674" d="M287 0v109h334v1134h-334v109h1216q156 0 276.5 -21t193 -54t118.5 -78t63 -88t17 -89q0 -247 -440 -326v-26q116 -13 200 -38t150 -69.5t99.5 -114.5t33.5 -167v-37q0 -92 39.5 -130t120.5 -38q60 0 135 43l43 -78q-49 -34 -129.5 -53t-151.5 -19q-227 0 -345 92 t-118 273v20q0 138 -86.5 200t-267.5 62h-450v-507h319v-109h-1036zM1004 723h434q170 0 254 65t84 199q0 256 -334 256h-438v-520z" />
<glyph unicode="s" horiz-adv-x="2308" d="M344 985q0 132 100 228.5t266.5 144t376.5 47.5q123 0 259.5 -22.5t230 -45t111.5 -22.5q28 0 43.5 23.5t15.5 60.5h96v-467h-96q-9 66 -61.5 130.5t-136.5 116.5t-207 84.5t-261 32.5q-196 0 -304.5 -52t-108.5 -138q0 -57 52 -98t176.5 -80t356.5 -86q182 -37 307 -73 t208.5 -75t129.5 -87.5t64 -101t18 -124.5q0 -137 -113.5 -237t-294.5 -148.5t-403 -48.5q-138 0 -286.5 22t-247 44t-115.5 22q-36 0 -56 -22.5t-20 -65.5h-96v532h96q27 -193 224 -308.5t512 -115.5q235 0 344.5 50t109.5 151q0 35 -10.5 61t-42.5 55t-90 54t-155.5 52 t-235.5 54q-293 58 -454 117.5t-231.5 138t-70.5 197.5z" />
<glyph unicode="t" horiz-adv-x="2394" d="M246 844v508h1902v-508h-100q0 93 -20 161.5t-68 124.5t-135.5 84.5t-214.5 28.5h-219v-1134h333v-109h-1054v109h334v1134h-220q-127 0 -214.5 -28.5t-135.5 -84.5t-68 -124.5t-20 -161.5h-100z" />
<glyph unicode="u" horiz-adv-x="2631" d="M205 1243v109h1052v-109h-335v-711q0 -250 114 -364.5t381 -114.5q305 0 440.5 123.5t135.5 364.5v702h-307v109h741v-109h-303v-711q0 -92 -16 -168t-51.5 -144t-94.5 -119t-142 -88.5t-198 -56.5t-258 -19q-126 0 -228.5 11t-198.5 36.5t-167.5 70.5t-125.5 109.5 t-81.5 157.5t-27.5 210v711h-330z" />
<glyph unicode="v" horiz-adv-x="2390" d="M102 1243v109h1026v-109h-309l547 -899l512 899h-258v109h668v-109h-258l-738 -1268h-127l-794 1268h-269z" />
<glyph unicode="w" horiz-adv-x="3317" d="M102 1243v109h959v-109h-248l459 -844l325 643l-110 201h-227v109h927v-109h-268l465 -844l426 844h-258v109h663v-109h-258l-645 -1268h-127l-512 930l-473 -930h-127l-702 1268h-269z" />
<glyph unicode="x" horiz-adv-x="2539" d="M164 1243v109h1081v-109h-272l358 -377l430 377h-245v109h704v-109h-276l-529 -463l643 -671h318v-109h-1047v109h238l-420 438l-500 -438h289v-109h-748v109h277l600 524l-584 610h-317z" />
<glyph unicode="y" horiz-adv-x="2295" d="M41 1243v109l1096 8v-109h-306l512 -553l469 545h-303v109h746v-109h-281l-573 -672v-462h332v-109h-1051v109h332v444l-641 690h-332z" />
<glyph unicode="z" horiz-adv-x="2240" d="M287 0v98l1165 1145h-401q-108 0 -185.5 -5.5t-147.5 -20.5t-115 -41.5t-78.5 -68.5t-48.5 -100.5t-15 -138.5h-101v484h1561v-99l-1165 -1144h508q131 0 221.5 9.5t164.5 33t116.5 66.5t64.5 107.5t22 157.5h101v-483h-1667z" />
<glyph unicode="{" horiz-adv-x="1200" d="M348 57q0 60 25.5 124t61.5 115.5t72 98.5t61.5 89t25.5 71q0 28 -22.5 47t-71.5 19h-68v108h68q49 0 71.5 19t22.5 47q0 29 -25.5 70.5t-61.5 88.5t-72 99t-61.5 115.5t-25.5 123.5q0 182 122.5 264t399.5 82h166v-108h-75q-71 0 -121 -9.5t-91 -33t-61 -68.5t-20 -112 q0 -74 24.5 -157t49 -161t24.5 -141q0 -123 -119 -174q119 -51 119 -172q0 -63 -24.5 -141t-49 -161t-24.5 -157q0 -54 14 -93.5t38 -64t62 -39t80.5 -19.5t98.5 -5h75v-109h-166q-278 0 -400 81t-122 263z" />
<glyph unicode="|" horiz-adv-x="751" d="M307 -51v1485h137v-1485h-137z" />
<glyph unicode="}" horiz-adv-x="1200" d="M164 -178h76q71 0 120.5 9t90.5 32t61 68t20 112q0 74 -24.5 157t-49 161t-24.5 141q0 121 119 172q-119 51 -119 174q0 63 24.5 141t49 161t24.5 157q0 67 -20 112t-61 68.5t-90.5 33t-120.5 9.5h-76v108h166q277 0 399.5 -82t122.5 -264q0 -60 -25.5 -123.5 t-61.5 -115.5t-72 -99t-61.5 -88.5t-25.5 -70.5q0 -28 22.5 -47t71.5 -19h68v-108h-68q-49 0 -71.5 -19t-22.5 -47q0 -29 25.5 -71t61.5 -89t72 -98.5t61.5 -115.5t25.5 -124q0 -182 -122 -263t-400 -81h-166v109z" />
<glyph unicode="~" horiz-adv-x="1521" d="M129 666q77 164 176 242.5t234 78.5q98 0 272 -59q213 -70 268 -70q85 0 128.5 26t103.5 115l82 -38q-77 -165 -176 -243.5t-234 -78.5q-98 0 -272 59q-203 70 -269 70q-85 0 -128 -26t-103 -115z" />
<glyph unicode="&#xa1;" horiz-adv-x="995" d="M287 145q0 61 23.5 148t52.5 169t54 215t27 275h107q2 -116 18.5 -224.5t39.5 -187.5t46 -147.5t38.5 -132.5t15.5 -115q0 -86 -65.5 -135t-145.5 -49t-145.5 49t-65.5 135zM295 1239q0 73 54.5 119.5t148.5 46.5t149 -46.5t55 -119.5q0 -70 -55.5 -117t-148.5 -47 q-91 0 -147 47.5t-56 116.5z" />
<glyph unicode="&#xa2;" horiz-adv-x="2068" d="M420 666q0 129 83 233t231.5 165t338.5 69v219h123v-219q216 -12 351.5 -89.5t135.5 -179.5q0 -60 -38 -102.5t-121 -42.5q-66 0 -106 29.5t-40 76.5q0 27 9.5 46.5t20.5 28t20.5 21t9.5 27.5q0 31 -69 57t-173 33v-719q148 13 265.5 66t158.5 94l70 -90 q-54 -48 -197.5 -108t-296.5 -72v-209h-123v207q-313 12 -483 134.5t-170 324.5zM768 672q0 -168 69.5 -255.5t235.5 -97.5v721q-89 -7 -149.5 -35t-94 -78t-47.5 -111t-14 -144z" />
<glyph unicode="&#xa3;" horiz-adv-x="2068" d="M190 147q0 90 87.5 158t246.5 68q84 0 232 -19q-1 62 -31.5 124t-91.5 147h-283v123h191q-88 123 -88 260q0 116 93 207t258 140.5t374 49.5q276 0 432.5 -85t156.5 -202q0 -73 -50 -126.5t-142 -53.5q-77 0 -121.5 39.5t-44.5 91.5q0 27 10 46.5t22 29t22 25t10 34.5 q0 37 -88 65.5t-201 28.5q-64 0 -119 -10t-105.5 -33.5t-80 -69.5t-29.5 -110q0 -29 4.5 -59t15.5 -68t18.5 -60.5t25.5 -72.5t24 -67h549v-123h-510q12 -55 12 -115q0 -93 -41 -193q38 -8 142 -31.5t151.5 -33t119 -19.5t124.5 -10q92 0 158.5 33.5t103.5 85.5l31 45 l98 -57l-49 -80q-99 -160 -208 -221.5t-255 -61.5q-120 0 -253 41t-296 111q-159 -152 -383 -152q-117 0 -179.5 48t-62.5 132zM303 150q0 -38 33.5 -63.5t99.5 -25.5q173 0 258 111q-185 78 -254 78q-70 0 -103.5 -28t-33.5 -72z" />
<glyph unicode="&#xa5;" horiz-adv-x="2068" d="M102 1243v109h928v-109h-244l385 -524l398 524h-248v109h643v-109h-250l-350 -465h324v-114h-410l-43 -60v-153h453v-115h-453v-227h321v-109h-1009v109h321v227h-456v115h456v153l-45 60h-411v114h323l-352 465h-281z" />
<glyph unicode="&#xa8;" horiz-adv-x="1212" d="M115 1704q0 63 44 107t107 44t107.5 -44t44.5 -107t-44.5 -107.5t-107.5 -44.5t-107 44.5t-44 107.5zM795 1704q0 63 44 107t107 44t107.5 -44t44.5 -107t-44.5 -107.5t-107.5 -44.5t-107 44.5t-44 107.5z" />
<glyph unicode="&#xa9;" horiz-adv-x="2021" d="M233 676q0 198 103.5 366t282.5 265.5t391 97.5q159 0 303.5 -57.5t248 -155.5t165 -232.5t61.5 -283.5t-61.5 -283.5t-165 -232.5t-248 -155.5t-303.5 -57.5q-212 0 -391 97.5t-282.5 265.5t-103.5 366zM344 676q0 -129 52 -246t140.5 -201.5t212.5 -134t261 -49.5 q183 0 336.5 84t242 229.5t88.5 317.5t-88.5 317.5t-242 229.5t-336.5 84q-137 0 -261 -49.5t-212.5 -134t-140.5 -201.5t-52 -246zM563 684q0 107 66 190.5t167 125.5t216 42q74 0 130.5 -12t87 -24.5t40.5 -12.5q27 0 30 41h70v-278h-70q-6 94 -80 154.5t-192 60.5 q-125 0 -180 -74t-55 -213t56 -214t183 -75q128 0 209 58.5t84 175.5h70v-299h-70q-2 41 -39 41q-5 0 -99.5 -23.5t-174.5 -23.5q-114 0 -215.5 42.5t-167.5 126.5t-66 191z" />
<glyph unicode="&#xab;" horiz-adv-x="1812" d="M164 686l647 467l70 -61l-314 -406l314 -405l-70 -62zM932 686l647 467l70 -61l-314 -406l314 -405l-70 -62z" />
<glyph unicode="&#xad;" horiz-adv-x="1273" d="M287 549v205h700v-205h-700z" />
<glyph unicode="&#xae;" horiz-adv-x="2021" d="M233 676q0 198 103.5 366t282.5 265.5t391 97.5q159 0 303.5 -57.5t248 -155.5t165 -232.5t61.5 -283.5t-61.5 -283.5t-165 -232.5t-248 -155.5t-303.5 -57.5q-212 0 -391 97.5t-282.5 265.5t-103.5 366zM344 676q0 -129 52 -246t140.5 -201.5t212.5 -134t261 -49.5 q183 0 336.5 84t242 229.5t88.5 317.5t-88.5 317.5t-242 229.5t-336.5 84q-137 0 -261 -49.5t-212.5 -134t-140.5 -201.5t-52 -246zM541 379v74h141v516h-141v73h528q149 0 233 -47.5t84 -126.5q0 -67 -62 -112.5t-163 -46.5q130 -4 183 -50.5t53 -126.5v-14q0 -43 15 -59.5 t42 -16.5q32 0 66 23l32 -66q-72 -37 -141 -37q-33 0 -62.5 4.5t-60.5 16.5t-52.5 31.5t-35.5 52t-14 74.5v34q0 43 -30.5 67t-108.5 24h-164v-213h139v-74h-481zM883 739h108q91 0 134.5 23t43.5 92q0 67 -41.5 91t-136.5 24h-108v-230z" />
<glyph unicode="&#xb4;" horiz-adv-x="1212" d="M199 1585l485 234q141 69 213 69q48 0 81.5 -28t33.5 -72q0 -25 -13.5 -46t-31 -34t-51.5 -27t-56.5 -21t-64.5 -18l-557 -147z" />
<glyph unicode="&#xb8;" horiz-adv-x="1212" d="M326 -451l41 82q87 -45 186 -45q143 0 143 97q0 98 -137 98q-65 0 -117 -25l-39 62l205 182h140l-154 -133q20 2 45 2q117 0 181.5 -50.5t64.5 -135.5q0 -95 -83 -145t-229 -50q-145 0 -247 61z" />
<glyph unicode="&#xbb;" horiz-adv-x="1812" d="M164 281l313 405l-313 406l69 61l648 -467l-648 -467zM932 281l313 405l-313 406l69 61l648 -467l-648 -467z" />
<glyph unicode="&#xbf;" horiz-adv-x="1781" d="M246 369q0 126 70 223t179.5 145.5t237.5 48.5q83 0 153 -15t91 -28v218h110v-390h-94q-11 107 -174 107q-59 0 -102.5 -24.5t-68 -69t-35.5 -97.5t-11 -118q0 -150 80.5 -224.5t265.5 -74.5q125 0 214 29.5t89 82.5q0 22 -11.5 39t-26 27.5t-26 33t-11.5 54.5 q0 53 46 92t132 39q94 0 148 -47t54 -133q0 -94 -90.5 -170t-232.5 -116t-301 -40q-200 0 -353.5 46t-243 139.5t-89.5 222.5zM827 1245q0 70 54 115t149 45q98 0 151.5 -45t53.5 -115q0 -69 -53.5 -113.5t-151.5 -44.5q-95 0 -149 44.5t-54 113.5z" />
<glyph unicode="&#xc0;" horiz-adv-x="2430" d="M102 0v109h258l758 1286h127l815 -1286h269v-109h-1000v109h311l-167 264h-811l-154 -264h258v-109h-664zM684 1788q0 44 33.5 72t81.5 28q72 0 213 -69l485 -234l-39 -90l-557 147q-42 11 -64.5 18t-56.5 21t-51.5 27t-31 34t-13.5 46zM727 485h674l-350 553z" />
<glyph unicode="&#xc1;" horiz-adv-x="2430" d="M102 0v109h258l758 1286h127l815 -1286h269v-109h-1000v109h311l-167 264h-811l-154 -264h258v-109h-664zM727 485h674l-350 553zM850 1585l485 234q141 69 213 69q48 0 81.5 -28t33.5 -72q0 -25 -13.5 -46t-31 -34t-51.5 -27t-56.5 -21t-64.5 -18l-557 -147z" />
<glyph unicode="&#xc2;" horiz-adv-x="2430" d="M102 0v109h258l758 1286h127l815 -1286h269v-109h-1000v109h311l-167 264h-811l-154 -264h258v-109h-664zM612 1581l535 317h70l534 -317l-43 -86l-526 203l-527 -203zM727 485h674l-350 553z" />
<glyph unicode="&#xc3;" horiz-adv-x="2430" d="M102 0v109h258l758 1286h127l815 -1286h269v-109h-1000v109h311l-167 264h-811l-154 -264h258v-109h-664zM616 1567q10 121 90.5 195.5t243.5 74.5q69 0 149.5 -17.5t141 -38t130.5 -38t120 -17.5q66 0 107 30.5t44 84.5h105q-20 -270 -328 -270q-86 0 -193 28t-204 56 t-158 28q-66 0 -103 -30t-40 -86h-105zM727 485h674l-350 553z" />
<glyph unicode="&#xc4;" horiz-adv-x="2430" d="M102 0v109h258l758 1286h127l815 -1286h269v-109h-1000v109h311l-167 264h-811l-154 -264h258v-109h-664zM688 1704q0 63 44.5 107t107.5 44t107 -44t44 -107t-44 -107.5t-107 -44.5t-107.5 44.5t-44.5 107.5zM727 485h674l-350 553zM1368 1704q0 63 44.5 107t107.5 44 t107 -44t44 -107t-44 -107.5t-107 -44.5t-107.5 44.5t-44.5 107.5z" />
<glyph unicode="&#xc5;" horiz-adv-x="2430" d="M102 0v109h258l715 1214q-63 28 -101 86.5t-38 130.5q0 100 71 171t175 71t176 -71t72 -171q0 -71 -38.5 -129t-101.5 -88l770 -1214h269v-109h-1000v109h311l-167 264h-811l-154 -264h258v-109h-664zM727 485h674l-350 553zM1040 1540q0 -62 40.5 -102.5t101.5 -40.5 q62 0 102.5 40.5t40.5 102.5t-41 104t-102 42t-101.5 -42t-40.5 -104z" />
<glyph unicode="&#xc6;" horiz-adv-x="3633" d="M20 0v109h259l1081 1134h-334v109h2134v-467h-100q0 88 -24.5 152t-80 111.5t-150.5 71t-231 23.5h-542v-498h188q161 0 215.5 49t54.5 191h97v-586h-97q0 142 -54.5 191t-215.5 49h-188v-530h618q288 0 411.5 94.5t123.5 300.5h100v-504h-1974v109h334v417h-805 l-398 -417h258v-109h-680zM944 639h701v604h-129z" />
<glyph unicode="&#xc7;" horiz-adv-x="2375" d="M287 676q0 128 51.5 243.5t143.5 203t214 151.5t267.5 97.5t300.5 33.5q119 0 239 -20t197 -40t92 -20q55 0 66 74h96v-535h-101q-5 129 -79.5 227.5t-205 151.5t-298.5 53q-269 0 -413 -158t-144 -462q0 -300 149.5 -460.5t411.5 -160.5q279 0 444 117t168 324h101v-555 h-101q-5 43 -21.5 64.5t-52.5 21.5q-12 0 -94.5 -20t-208 -40t-241.5 -20q-5 0 -15.5 1t-15.5 1l-92 -82q20 2 45 2q117 0 181.5 -50.5t64.5 -135.5q0 -95 -83 -145t-229 -50q-145 0 -247 61l41 82q87 -45 186 -45q143 0 143 97q0 98 -137 98q-65 0 -117 -25l-39 62l154 137 q-243 23 -428.5 118t-289 251.5t-103.5 351.5z" />
<glyph unicode="&#xc8;" horiz-adv-x="2629" d="M287 0v109h334v1134h-334v109h1870v-467h-101q0 88 -24 152t-79.5 111.5t-150.5 71t-231 23.5h-563v-498h249q161 0 216 49.5t55 190.5h96v-586h-96q0 141 -55 190.5t-216 49.5h-249v-530h639q288 0 411 94.5t123 300.5h100v-504h-1994zM907 1788q0 44 33.5 72t81.5 28 q72 0 213 -69l485 -234l-39 -90l-557 147q-42 11 -64.5 18t-56.5 21t-51.5 27t-31 34t-13.5 46z" />
<glyph unicode="&#xc9;" horiz-adv-x="2629" d="M287 0v109h334v1134h-334v109h1870v-467h-101q0 88 -24 152t-79.5 111.5t-150.5 71t-231 23.5h-563v-498h249q161 0 216 49.5t55 190.5h96v-586h-96q0 141 -55 190.5t-216 49.5h-249v-530h639q288 0 411 94.5t123 300.5h100v-504h-1994zM1053 1585l485 234q141 69 213 69 q48 0 81.5 -28t33.5 -72q0 -25 -13.5 -46t-31 -34t-51.5 -27t-56.5 -21t-64.5 -18l-557 -147z" />
<glyph unicode="&#xca;" horiz-adv-x="2629" d="M287 0v109h334v1134h-334v109h1870v-467h-101q0 88 -24 152t-79.5 111.5t-150.5 71t-231 23.5h-563v-498h249q161 0 216 49.5t55 190.5h96v-586h-96q0 141 -55 190.5t-216 49.5h-249v-530h639q288 0 411 94.5t123 300.5h100v-504h-1994zM786 1581l535 317h70l534 -317 l-43 -86l-526 203l-527 -203z" />
<glyph unicode="&#xcb;" horiz-adv-x="2629" d="M287 0v109h334v1134h-334v109h1870v-467h-101q0 88 -24 152t-79.5 111.5t-150.5 71t-231 23.5h-563v-498h249q161 0 216 49.5t55 190.5h96v-586h-96q0 141 -55 190.5t-216 49.5h-249v-530h639q288 0 411 94.5t123 300.5h100v-504h-1994zM858 1704q0 63 44.5 107t107.5 44 t107 -44t44 -107t-44 -107.5t-107 -44.5t-107.5 44.5t-44.5 107.5zM1538 1704q0 63 44.5 107t107.5 44t107 -44t44 -107t-44 -107.5t-107 -44.5t-107.5 44.5t-44.5 107.5z" />
<glyph unicode="&#xcc;" horiz-adv-x="1628" d="M287 0v109h334v1134h-334v109h1054v-109h-333v-1134h333v-109h-1054zM348 1788q0 44 33.5 72t81.5 28q72 0 213 -69l485 -234l-39 -90l-557 147q-42 11 -64.5 18t-56.5 21t-51.5 27t-31 34t-13.5 46z" />
<glyph unicode="&#xcd;" horiz-adv-x="1628" d="M287 0v109h334v1134h-334v109h1054v-109h-333v-1134h333v-109h-1054zM467 1585l485 234q141 69 213 69q48 0 81.5 -28t33.5 -72q0 -25 -13.5 -46t-31 -34t-51.5 -27t-56.5 -21t-64.5 -18l-557 -147z" />
<glyph unicode="&#xce;" horiz-adv-x="1628" d="M244 1581l534 317h70l534 -317l-43 -86l-526 203l-526 -203zM287 0v109h334v1134h-334v109h1054v-109h-333v-1134h333v-109h-1054z" />
<glyph unicode="&#xcf;" horiz-adv-x="1628" d="M287 0v109h334v1134h-334v109h1054v-109h-333v-1134h333v-109h-1054zM322 1704q0 63 44 107t107 44t107.5 -44t44.5 -107t-44.5 -107.5t-107.5 -44.5t-107 44.5t-44 107.5zM1001 1704q0 63 44.5 107t107.5 44t107.5 -44t44.5 -107t-44.5 -107.5t-107.5 -44.5t-107.5 44.5 t-44.5 107.5z" />
<glyph unicode="&#xd1;" horiz-adv-x="2605" d="M287 0v109h303v1134h-303v109h729l950 -899v790h-307v109h741v-109h-303v-1288h-131l-1245 1190v-1036h307v-109h-741zM788 1567q10 121 90.5 195.5t243.5 74.5q69 0 149.5 -17.5t141 -38t130.5 -38t120 -17.5q66 0 107.5 30.5t44.5 84.5h104q-20 -270 -328 -270 q-86 0 -193 28t-204 56t-158 28q-66 0 -103 -30t-40 -86h-105z" />
<glyph unicode="&#xd2;" d="M287 676q0 161 81.5 301t215.5 235t308.5 149t360.5 54q154 0 298.5 -34t265 -99.5t211.5 -154t141.5 -205t50.5 -246.5q0 -161 -81.5 -301t-216 -235t-309 -149t-360.5 -54q-193 0 -368.5 54t-308 149t-211 234.5t-78.5 301.5zM713 676q0 -143 31.5 -257t96 -198.5 t169 -130t243.5 -45.5t244 45.5t169.5 130t96 198.5t31.5 257t-31.5 257t-96 198.5t-169.5 130t-244 45.5t-243.5 -45.5t-169 -130t-96 -198.5t-31.5 -257zM805 1788q0 44 33.5 72t81.5 28q72 0 213 -69l485 -234l-39 -90l-557 147q-42 11 -64.5 18t-56.5 21t-51.5 27 t-31 34t-13.5 46z" />
<glyph unicode="&#xd3;" d="M287 676q0 161 81.5 301t215.5 235t308.5 149t360.5 54q154 0 298.5 -34t265 -99.5t211.5 -154t141.5 -205t50.5 -246.5q0 -161 -81.5 -301t-216 -235t-309 -149t-360.5 -54q-193 0 -368.5 54t-308 149t-211 234.5t-78.5 301.5zM713 676q0 -143 31.5 -257t96 -198.5 t169 -130t243.5 -45.5t244 45.5t169.5 130t96 198.5t31.5 257t-31.5 257t-96 198.5t-169.5 130t-244 45.5t-243.5 -45.5t-169 -130t-96 -198.5t-31.5 -257zM928 1585l485 234q141 69 213 69q48 0 81.5 -28t33.5 -72q0 -25 -13.5 -46t-31 -34t-51.5 -27t-56.5 -21t-64.5 -18 l-557 -147z" />
<glyph unicode="&#xd4;" d="M287 676q0 161 81.5 301t215.5 235t308.5 149t360.5 54q154 0 298.5 -34t265 -99.5t211.5 -154t141.5 -205t50.5 -246.5q0 -161 -81.5 -301t-216 -235t-309 -149t-360.5 -54q-193 0 -368.5 54t-308 149t-211 234.5t-78.5 301.5zM684 1581l535 317h69l535 -317l-43 -86 l-527 203l-526 -203zM713 676q0 -143 31.5 -257t96 -198.5t169 -130t243.5 -45.5t244 45.5t169.5 130t96 198.5t31.5 257t-31.5 257t-96 198.5t-169.5 130t-244 45.5t-243.5 -45.5t-169 -130t-96 -198.5t-31.5 -257z" />
<glyph unicode="&#xd5;" d="M287 676q0 161 81.5 301t215.5 235t308.5 149t360.5 54q154 0 298.5 -34t265 -99.5t211.5 -154t141.5 -205t50.5 -246.5q0 -161 -81.5 -301t-216 -235t-309 -149t-360.5 -54q-193 0 -368.5 54t-308 149t-211 234.5t-78.5 301.5zM688 1567q10 121 90.5 195.5t243.5 74.5 q69 0 149.5 -17.5t141 -38t130.5 -38t120 -17.5q66 0 107 30.5t44 84.5h105q-20 -270 -328 -270q-86 0 -193 28t-204 56t-158 28q-66 0 -103 -30t-40 -86h-105zM713 676q0 -143 31.5 -257t96 -198.5t169 -130t243.5 -45.5t244 45.5t169.5 130t96 198.5t31.5 257t-31.5 257 t-96 198.5t-169.5 130t-244 45.5t-243.5 -45.5t-169 -130t-96 -198.5t-31.5 -257z" />
<glyph unicode="&#xd6;" d="M287 676q0 161 81.5 301t215.5 235t308.5 149t360.5 54q154 0 298.5 -34t265 -99.5t211.5 -154t141.5 -205t50.5 -246.5q0 -161 -81.5 -301t-216 -235t-309 -149t-360.5 -54q-193 0 -368.5 54t-308 149t-211 234.5t-78.5 301.5zM713 676q0 -143 31.5 -257t96 -198.5 t169 -130t243.5 -45.5t244 45.5t169.5 130t96 198.5t31.5 257t-31.5 257t-96 198.5t-169.5 130t-244 45.5t-243.5 -45.5t-169 -130t-96 -198.5t-31.5 -257zM762 1704q0 63 44 107t107 44t107.5 -44t44.5 -107t-44.5 -107.5t-107.5 -44.5t-107 44.5t-44 107.5zM1442 1704 q0 63 44 107t107 44t107.5 -44t44.5 -107t-44.5 -107.5t-107.5 -44.5t-107 44.5t-44 107.5z" />
<glyph unicode="&#xd8;" d="M287 676q0 161 81.5 301t215.5 235t308.5 149t360.5 54q242 0 459 -86l113 137h155l-155 -190q183 -98 289 -253.5t106 -346.5q0 -161 -81.5 -301t-216 -235t-309 -149t-360.5 -54q-246 0 -460 86l-113 -138h-156l156 189q-183 100 -288 255.5t-105 346.5zM713 676 q0 -271 108 -430l781 950q-130 111 -349 111q-139 0 -243.5 -45.5t-169 -130t-96 -198.5t-31.5 -257zM901 156q133 -111 352 -111q139 0 244 45.5t169.5 130t96 198.5t31.5 257q0 271 -111 430z" />
<glyph unicode="&#xd9;" horiz-adv-x="2631" d="M205 1243v109h1052v-109h-335v-711q0 -250 114 -364.5t381 -114.5q305 0 440.5 123.5t135.5 364.5v702h-307v109h741v-109h-303v-711q0 -92 -16 -168t-51.5 -144t-94.5 -119t-142 -88.5t-198 -56.5t-258 -19q-126 0 -228.5 11t-198.5 36.5t-167.5 70.5t-125.5 109.5 t-81.5 157.5t-27.5 210v711h-330zM907 1788q0 44 33.5 72t81.5 28q72 0 213 -69l485 -234l-39 -90l-557 147q-42 11 -64.5 18t-56.5 21t-51.5 27t-31 34t-13.5 46z" />
<glyph unicode="&#xda;" horiz-adv-x="2631" d="M205 1243v109h1052v-109h-335v-711q0 -250 114 -364.5t381 -114.5q305 0 440.5 123.5t135.5 364.5v702h-307v109h741v-109h-303v-711q0 -92 -16 -168t-51.5 -144t-94.5 -119t-142 -88.5t-198 -56.5t-258 -19q-126 0 -228.5 11t-198.5 36.5t-167.5 70.5t-125.5 109.5 t-81.5 157.5t-27.5 210v711h-330zM1051 1585l485 234q141 69 213 69q48 0 81.5 -28t33.5 -72q0 -25 -13.5 -46t-31 -34t-51.5 -27t-56.5 -21t-64.5 -18l-557 -147z" />
<glyph unicode="&#xdb;" horiz-adv-x="2631" d="M205 1243v109h1052v-109h-335v-711q0 -250 114 -364.5t381 -114.5q305 0 440.5 123.5t135.5 364.5v702h-307v109h741v-109h-303v-711q0 -92 -16 -168t-51.5 -144t-94.5 -119t-142 -88.5t-198 -56.5t-258 -19q-126 0 -228.5 11t-198.5 36.5t-167.5 70.5t-125.5 109.5 t-81.5 157.5t-27.5 210v711h-330zM776 1581l535 317h69l535 -317l-43 -86l-526 203l-527 -203z" />
<glyph unicode="&#xdc;" horiz-adv-x="2631" d="M205 1243v109h1052v-109h-335v-711q0 -250 114 -364.5t381 -114.5q305 0 440.5 123.5t135.5 364.5v702h-307v109h741v-109h-303v-711q0 -92 -16 -168t-51.5 -144t-94.5 -119t-142 -88.5t-198 -56.5t-258 -19q-126 0 -228.5 11t-198.5 36.5t-167.5 70.5t-125.5 109.5 t-81.5 157.5t-27.5 210v711h-330zM838 1704q0 63 44 107t107 44t107.5 -44t44.5 -107t-44.5 -107.5t-107.5 -44.5t-107 44.5t-44 107.5zM1518 1704q0 63 44 107t107 44t107.5 -44t44.5 -107t-44.5 -107.5t-107.5 -44.5t-107 44.5t-44 107.5z" />
<glyph unicode="&#xdd;" horiz-adv-x="2295" d="M41 1243v109l1096 8v-109h-306l512 -553l469 545h-303v109h746v-109h-281l-573 -672v-462h332v-109h-1051v109h332v444l-641 690h-332zM948 1585l486 234q141 69 213 69q48 0 81 -28t33 -72q0 -25 -13.5 -46t-31 -34t-51.5 -27t-56.5 -21t-64.5 -18l-557 -147z" />
<glyph unicode="&#xdf;" horiz-adv-x="4442" d="M344 985q0 132 100 228.5t266.5 144t376.5 47.5q123 0 259.5 -22.5t230 -45t111.5 -22.5q28 0 43.5 23.5t15.5 60.5h96v-467h-96q-9 66 -61.5 130.5t-136.5 116.5t-207 84.5t-261 32.5q-196 0 -304.5 -52t-108.5 -138q0 -57 52 -98t176.5 -80t356.5 -86q182 -37 307 -73 t208.5 -75t129.5 -87.5t64 -101t18 -124.5q0 -137 -113.5 -237t-294.5 -148.5t-403 -48.5q-138 0 -286.5 22t-247 44t-115.5 22q-36 0 -56 -22.5t-20 -65.5h-96v532h96q27 -193 224 -308.5t512 -115.5q235 0 344.5 50t109.5 151q0 35 -10.5 61t-42.5 55t-90 54t-155.5 52 t-235.5 54q-293 58 -454 117.5t-231.5 138t-70.5 197.5zM2478 985q0 132 100.5 228.5t267 144t376.5 47.5q123 0 259.5 -22.5t229.5 -45t111 -22.5q28 0 43.5 23.5t15.5 60.5h96v-467h-96q-9 66 -61.5 130.5t-136.5 116.5t-207 84.5t-261 32.5q-196 0 -304.5 -52 t-108.5 -138q0 -57 52 -98t176.5 -80t356.5 -86q182 -37 307 -73t208.5 -75t129.5 -87.5t64 -101t18 -124.5q0 -137 -113.5 -237t-294.5 -148.5t-403 -48.5q-138 0 -286.5 22t-247 44t-115.5 22q-36 0 -56 -22.5t-20 -65.5h-96v532h96q27 -193 224 -308.5t512 -115.5 q235 0 344.5 50t109.5 151q0 35 -10.5 61t-42.5 55t-90 54t-155.5 52t-235.5 54q-293 58 -454 117.5t-231.5 138t-70.5 197.5z" />
<glyph unicode="&#xe0;" horiz-adv-x="2430" d="M102 0v109h258l758 1286h127l815 -1286h269v-109h-1000v109h311l-167 264h-811l-154 -264h258v-109h-664zM684 1788q0 44 33.5 72t81.5 28q72 0 213 -69l485 -234l-39 -90l-557 147q-42 11 -64.5 18t-56.5 21t-51.5 27t-31 34t-13.5 46zM727 485h674l-350 553z" />
<glyph unicode="&#xe1;" horiz-adv-x="2430" d="M102 0v109h258l758 1286h127l815 -1286h269v-109h-1000v109h311l-167 264h-811l-154 -264h258v-109h-664zM727 485h674l-350 553zM850 1585l485 234q141 69 213 69q48 0 81.5 -28t33.5 -72q0 -25 -13.5 -46t-31 -34t-51.5 -27t-56.5 -21t-64.5 -18l-557 -147z" />
<glyph unicode="&#xe2;" horiz-adv-x="2430" d="M102 0v109h258l758 1286h127l815 -1286h269v-109h-1000v109h311l-167 264h-811l-154 -264h258v-109h-664zM612 1581l535 317h70l534 -317l-43 -86l-526 203l-527 -203zM727 485h674l-350 553z" />
<glyph unicode="&#xe3;" horiz-adv-x="2430" d="M102 0v109h258l758 1286h127l815 -1286h269v-109h-1000v109h311l-167 264h-811l-154 -264h258v-109h-664zM616 1567q10 121 90.5 195.5t243.5 74.5q69 0 149.5 -17.5t141 -38t130.5 -38t120 -17.5q66 0 107 30.5t44 84.5h105q-20 -270 -328 -270q-86 0 -193 28t-204 56 t-158 28q-66 0 -103 -30t-40 -86h-105zM727 485h674l-350 553z" />
<glyph unicode="&#xe4;" horiz-adv-x="2430" d="M102 0v109h258l758 1286h127l815 -1286h269v-109h-1000v109h311l-167 264h-811l-154 -264h258v-109h-664zM688 1704q0 63 44.5 107t107.5 44t107 -44t44 -107t-44 -107.5t-107 -44.5t-107.5 44.5t-44.5 107.5zM727 485h674l-350 553zM1368 1704q0 63 44.5 107t107.5 44 t107 -44t44 -107t-44 -107.5t-107 -44.5t-107.5 44.5t-44.5 107.5z" />
<glyph unicode="&#xe5;" horiz-adv-x="2430" d="M102 0v109h258l715 1214q-63 28 -101 86.5t-38 130.5q0 100 71 171t175 71t176 -71t72 -171q0 -71 -38.5 -129t-101.5 -88l770 -1214h269v-109h-1000v109h311l-167 264h-811l-154 -264h258v-109h-664zM727 485h674l-350 553zM1040 1540q0 -62 40.5 -102.5t101.5 -40.5 q62 0 102.5 40.5t40.5 102.5t-41 104t-102 42t-101.5 -42t-40.5 -104z" />
<glyph unicode="&#xe6;" horiz-adv-x="3633" d="M20 0v109h259l1081 1134h-334v109h2134v-467h-100q0 88 -24.5 152t-80 111.5t-150.5 71t-231 23.5h-542v-498h188q161 0 215.5 49t54.5 191h97v-586h-97q0 142 -54.5 191t-215.5 49h-188v-530h618q288 0 411.5 94.5t123.5 300.5h100v-504h-1974v109h334v417h-805 l-398 -417h258v-109h-680zM944 639h701v604h-129z" />
<glyph unicode="&#xe7;" horiz-adv-x="2375" d="M287 676q0 128 51.5 243.5t143.5 203t214 151.5t267.5 97.5t300.5 33.5q119 0 239 -20t197 -40t92 -20q55 0 66 74h96v-535h-101q-5 129 -79.5 227.5t-205 151.5t-298.5 53q-269 0 -413 -158t-144 -462q0 -300 149.5 -460.5t411.5 -160.5q279 0 444 117t168 324h101v-555 h-101q-5 43 -21.5 64.5t-52.5 21.5q-12 0 -94.5 -20t-208 -40t-241.5 -20q-5 0 -15.5 1t-15.5 1l-92 -82q20 2 45 2q117 0 181.5 -50.5t64.5 -135.5q0 -95 -83 -145t-229 -50q-145 0 -247 61l41 82q87 -45 186 -45q143 0 143 97q0 98 -137 98q-65 0 -117 -25l-39 62l154 137 q-243 23 -428.5 118t-289 251.5t-103.5 351.5z" />
<glyph unicode="&#xe8;" horiz-adv-x="2629" d="M287 0v109h334v1134h-334v109h1870v-467h-101q0 88 -24 152t-79.5 111.5t-150.5 71t-231 23.5h-563v-498h249q161 0 216 49.5t55 190.5h96v-586h-96q0 141 -55 190.5t-216 49.5h-249v-530h639q288 0 411 94.5t123 300.5h100v-504h-1994zM907 1788q0 44 33.5 72t81.5 28 q72 0 213 -69l485 -234l-39 -90l-557 147q-42 11 -64.5 18t-56.5 21t-51.5 27t-31 34t-13.5 46z" />
<glyph unicode="&#xe9;" horiz-adv-x="2629" d="M287 0v109h334v1134h-334v109h1870v-467h-101q0 88 -24 152t-79.5 111.5t-150.5 71t-231 23.5h-563v-498h249q161 0 216 49.5t55 190.5h96v-586h-96q0 141 -55 190.5t-216 49.5h-249v-530h639q288 0 411 94.5t123 300.5h100v-504h-1994zM1053 1585l485 234q141 69 213 69 q48 0 81.5 -28t33.5 -72q0 -25 -13.5 -46t-31 -34t-51.5 -27t-56.5 -21t-64.5 -18l-557 -147z" />
<glyph unicode="&#xea;" horiz-adv-x="2629" d="M287 0v109h334v1134h-334v109h1870v-467h-101q0 88 -24 152t-79.5 111.5t-150.5 71t-231 23.5h-563v-498h249q161 0 216 49.5t55 190.5h96v-586h-96q0 141 -55 190.5t-216 49.5h-249v-530h639q288 0 411 94.5t123 300.5h100v-504h-1994zM786 1581l535 317h70l534 -317 l-43 -86l-526 203l-527 -203z" />
<glyph unicode="&#xeb;" horiz-adv-x="2629" d="M287 0v109h334v1134h-334v109h1870v-467h-101q0 88 -24 152t-79.5 111.5t-150.5 71t-231 23.5h-563v-498h249q161 0 216 49.5t55 190.5h96v-586h-96q0 141 -55 190.5t-216 49.5h-249v-530h639q288 0 411 94.5t123 300.5h100v-504h-1994zM858 1704q0 63 44.5 107t107.5 44 t107 -44t44 -107t-44 -107.5t-107 -44.5t-107.5 44.5t-44.5 107.5zM1538 1704q0 63 44.5 107t107.5 44t107 -44t44 -107t-44 -107.5t-107 -44.5t-107.5 44.5t-44.5 107.5z" />
<glyph unicode="&#xec;" horiz-adv-x="1628" d="M287 0v109h334v1134h-334v109h1054v-109h-333v-1134h333v-109h-1054zM348 1788q0 44 33.5 72t81.5 28q72 0 213 -69l485 -234l-39 -90l-557 147q-42 11 -64.5 18t-56.5 21t-51.5 27t-31 34t-13.5 46z" />
<glyph unicode="&#xed;" horiz-adv-x="1628" d="M287 0v109h334v1134h-334v109h1054v-109h-333v-1134h333v-109h-1054zM467 1585l485 234q141 69 213 69q48 0 81.5 -28t33.5 -72q0 -25 -13.5 -46t-31 -34t-51.5 -27t-56.5 -21t-64.5 -18l-557 -147z" />
<glyph unicode="&#xee;" horiz-adv-x="1628" d="M244 1581l534 317h70l534 -317l-43 -86l-526 203l-526 -203zM287 0v109h334v1134h-334v109h1054v-109h-333v-1134h333v-109h-1054z" />
<glyph unicode="&#xef;" horiz-adv-x="1628" d="M287 0v109h334v1134h-334v109h1054v-109h-333v-1134h333v-109h-1054zM322 1704q0 63 44 107t107 44t107.5 -44t44.5 -107t-44.5 -107.5t-107.5 -44.5t-107 44.5t-44 107.5zM1001 1704q0 63 44.5 107t107.5 44t107.5 -44t44.5 -107t-44.5 -107.5t-107.5 -44.5t-107.5 44.5 t-44.5 107.5z" />
<glyph unicode="&#xf1;" horiz-adv-x="2605" d="M287 0v109h303v1134h-303v109h729l950 -899v790h-307v109h741v-109h-303v-1288h-131l-1245 1190v-1036h307v-109h-741zM788 1567q10 121 90.5 195.5t243.5 74.5q69 0 149.5 -17.5t141 -38t130.5 -38t120 -17.5q66 0 107.5 30.5t44.5 84.5h104q-20 -270 -328 -270 q-86 0 -193 28t-204 56t-158 28q-66 0 -103 -30t-40 -86h-105z" />
<glyph unicode="&#xf2;" d="M287 676q0 161 81.5 301t215.5 235t308.5 149t360.5 54q154 0 298.5 -34t265 -99.5t211.5 -154t141.5 -205t50.5 -246.5q0 -161 -81.5 -301t-216 -235t-309 -149t-360.5 -54q-193 0 -368.5 54t-308 149t-211 234.5t-78.5 301.5zM713 676q0 -143 31.5 -257t96 -198.5 t169 -130t243.5 -45.5t244 45.5t169.5 130t96 198.5t31.5 257t-31.5 257t-96 198.5t-169.5 130t-244 45.5t-243.5 -45.5t-169 -130t-96 -198.5t-31.5 -257zM805 1788q0 44 33.5 72t81.5 28q72 0 213 -69l485 -234l-39 -90l-557 147q-42 11 -64.5 18t-56.5 21t-51.5 27 t-31 34t-13.5 46z" />
<glyph unicode="&#xf3;" d="M287 676q0 161 81.5 301t215.5 235t308.5 149t360.5 54q154 0 298.5 -34t265 -99.5t211.5 -154t141.5 -205t50.5 -246.5q0 -161 -81.5 -301t-216 -235t-309 -149t-360.5 -54q-193 0 -368.5 54t-308 149t-211 234.5t-78.5 301.5zM713 676q0 -143 31.5 -257t96 -198.5 t169 -130t243.5 -45.5t244 45.5t169.5 130t96 198.5t31.5 257t-31.5 257t-96 198.5t-169.5 130t-244 45.5t-243.5 -45.5t-169 -130t-96 -198.5t-31.5 -257zM928 1585l485 234q141 69 213 69q48 0 81.5 -28t33.5 -72q0 -25 -13.5 -46t-31 -34t-51.5 -27t-56.5 -21t-64.5 -18 l-557 -147z" />
<glyph unicode="&#xf4;" d="M287 676q0 161 81.5 301t215.5 235t308.5 149t360.5 54q154 0 298.5 -34t265 -99.5t211.5 -154t141.5 -205t50.5 -246.5q0 -161 -81.5 -301t-216 -235t-309 -149t-360.5 -54q-193 0 -368.5 54t-308 149t-211 234.5t-78.5 301.5zM684 1581l535 317h69l535 -317l-43 -86 l-527 203l-526 -203zM713 676q0 -143 31.5 -257t96 -198.5t169 -130t243.5 -45.5t244 45.5t169.5 130t96 198.5t31.5 257t-31.5 257t-96 198.5t-169.5 130t-244 45.5t-243.5 -45.5t-169 -130t-96 -198.5t-31.5 -257z" />
<glyph unicode="&#xf5;" d="M287 676q0 161 81.5 301t215.5 235t308.5 149t360.5 54q154 0 298.5 -34t265 -99.5t211.5 -154t141.5 -205t50.5 -246.5q0 -161 -81.5 -301t-216 -235t-309 -149t-360.5 -54q-193 0 -368.5 54t-308 149t-211 234.5t-78.5 301.5zM688 1567q10 121 90.5 195.5t243.5 74.5 q69 0 149.5 -17.5t141 -38t130.5 -38t120 -17.5q66 0 107 30.5t44 84.5h105q-20 -270 -328 -270q-86 0 -193 28t-204 56t-158 28q-66 0 -103 -30t-40 -86h-105zM713 676q0 -143 31.5 -257t96 -198.5t169 -130t243.5 -45.5t244 45.5t169.5 130t96 198.5t31.5 257t-31.5 257 t-96 198.5t-169.5 130t-244 45.5t-243.5 -45.5t-169 -130t-96 -198.5t-31.5 -257z" />
<glyph unicode="&#xf6;" d="M287 676q0 161 81.5 301t215.5 235t308.5 149t360.5 54q154 0 298.5 -34t265 -99.5t211.5 -154t141.5 -205t50.5 -246.5q0 -161 -81.5 -301t-216 -235t-309 -149t-360.5 -54q-193 0 -368.5 54t-308 149t-211 234.5t-78.5 301.5zM713 676q0 -143 31.5 -257t96 -198.5 t169 -130t243.5 -45.5t244 45.5t169.5 130t96 198.5t31.5 257t-31.5 257t-96 198.5t-169.5 130t-244 45.5t-243.5 -45.5t-169 -130t-96 -198.5t-31.5 -257zM762 1704q0 63 44 107t107 44t107.5 -44t44.5 -107t-44.5 -107.5t-107.5 -44.5t-107 44.5t-44 107.5zM1442 1704 q0 63 44 107t107 44t107.5 -44t44.5 -107t-44.5 -107.5t-107.5 -44.5t-107 44.5t-44 107.5z" />
<glyph unicode="&#xf8;" d="M287 676q0 161 81.5 301t215.5 235t308.5 149t360.5 54q242 0 459 -86l113 137h155l-155 -190q183 -98 289 -253.5t106 -346.5q0 -161 -81.5 -301t-216 -235t-309 -149t-360.5 -54q-246 0 -460 86l-113 -138h-156l156 189q-183 100 -288 255.5t-105 346.5zM713 676 q0 -271 108 -430l781 950q-130 111 -349 111q-139 0 -243.5 -45.5t-169 -130t-96 -198.5t-31.5 -257zM901 156q133 -111 352 -111q139 0 244 45.5t169.5 130t96 198.5t31.5 257q0 271 -111 430z" />
<glyph unicode="&#xf9;" horiz-adv-x="2631" d="M205 1243v109h1052v-109h-335v-711q0 -250 114 -364.5t381 -114.5q305 0 440.5 123.5t135.5 364.5v702h-307v109h741v-109h-303v-711q0 -92 -16 -168t-51.5 -144t-94.5 -119t-142 -88.5t-198 -56.5t-258 -19q-126 0 -228.5 11t-198.5 36.5t-167.5 70.5t-125.5 109.5 t-81.5 157.5t-27.5 210v711h-330zM907 1788q0 44 33.5 72t81.5 28q72 0 213 -69l485 -234l-39 -90l-557 147q-42 11 -64.5 18t-56.5 21t-51.5 27t-31 34t-13.5 46z" />
<glyph unicode="&#xfa;" horiz-adv-x="2631" d="M205 1243v109h1052v-109h-335v-711q0 -250 114 -364.5t381 -114.5q305 0 440.5 123.5t135.5 364.5v702h-307v109h741v-109h-303v-711q0 -92 -16 -168t-51.5 -144t-94.5 -119t-142 -88.5t-198 -56.5t-258 -19q-126 0 -228.5 11t-198.5 36.5t-167.5 70.5t-125.5 109.5 t-81.5 157.5t-27.5 210v711h-330zM1051 1585l485 234q141 69 213 69q48 0 81.5 -28t33.5 -72q0 -25 -13.5 -46t-31 -34t-51.5 -27t-56.5 -21t-64.5 -18l-557 -147z" />
<glyph unicode="&#xfb;" horiz-adv-x="2631" d="M205 1243v109h1052v-109h-335v-711q0 -250 114 -364.5t381 -114.5q305 0 440.5 123.5t135.5 364.5v702h-307v109h741v-109h-303v-711q0 -92 -16 -168t-51.5 -144t-94.5 -119t-142 -88.5t-198 -56.5t-258 -19q-126 0 -228.5 11t-198.5 36.5t-167.5 70.5t-125.5 109.5 t-81.5 157.5t-27.5 210v711h-330zM776 1581l535 317h69l535 -317l-43 -86l-526 203l-527 -203z" />
<glyph unicode="&#xfc;" horiz-adv-x="2631" d="M205 1243v109h1052v-109h-335v-711q0 -250 114 -364.5t381 -114.5q305 0 440.5 123.5t135.5 364.5v702h-307v109h741v-109h-303v-711q0 -92 -16 -168t-51.5 -144t-94.5 -119t-142 -88.5t-198 -56.5t-258 -19q-126 0 -228.5 11t-198.5 36.5t-167.5 70.5t-125.5 109.5 t-81.5 157.5t-27.5 210v711h-330zM838 1704q0 63 44 107t107 44t107.5 -44t44.5 -107t-44.5 -107.5t-107.5 -44.5t-107 44.5t-44 107.5zM1518 1704q0 63 44 107t107 44t107.5 -44t44.5 -107t-44.5 -107.5t-107.5 -44.5t-107 44.5t-44 107.5z" />
<glyph unicode="&#xfd;" horiz-adv-x="2295" d="M41 1243v109l1096 8v-109h-306l512 -553l469 545h-303v109h746v-109h-281l-573 -672v-462h332v-109h-1051v109h332v444l-641 690h-332zM948 1585l486 234q141 69 213 69q48 0 81 -28t33 -72q0 -25 -13.5 -46t-31 -34t-51.5 -27t-56.5 -21t-64.5 -18l-557 -147z" />
<glyph unicode="&#xff;" horiz-adv-x="2295" d="M41 1243v109l1096 8v-109h-306l512 -553l469 545h-303v109h746v-109h-281l-573 -672v-462h332v-109h-1051v109h332v444l-641 690h-332zM672 1704q0 63 44 107t107 44t107.5 -44t44.5 -107t-44.5 -107.5t-107.5 -44.5t-107 44.5t-44 107.5zM1352 1704q0 63 44 107t107 44 t107.5 -44t44.5 -107t-44.5 -107.5t-107.5 -44.5t-107 44.5t-44 107.5z" />
<glyph unicode="&#x13f;" horiz-adv-x="2301" d="M287 0v109h334v1134h-334v109h1054v-109h-333v-1134h399q112 0 188.5 6t147 22.5t114 46.5t76.5 78.5t47.5 117.5t16.5 165h100v-545h-1810zM1300 717q0 74 57.5 121t162.5 47q102 0 159.5 -47.5t57.5 -120.5q0 -76 -57 -124t-160 -48q-105 0 -162.5 48t-57.5 124z" />
<glyph unicode="&#x140;" horiz-adv-x="2301" d="M287 0v109h334v1134h-334v109h1054v-109h-333v-1134h399q112 0 188.5 6t147 22.5t114 46.5t76.5 78.5t47.5 117.5t16.5 165h100v-545h-1810zM1300 717q0 74 57.5 121t162.5 47q102 0 159.5 -47.5t57.5 -120.5q0 -76 -57 -124t-160 -48q-105 0 -162.5 48t-57.5 124z" />
<glyph unicode="&#x152;" horiz-adv-x="3620" d="M227 676q0 221 129.5 385.5t353.5 249t511 84.5q205 0 411 -43h1516v-467h-101q0 88 -24 152t-79.5 111.5t-150.5 71t-231 23.5h-543v-498h189q161 0 215.5 49t54.5 191h96v-586h-96q0 142 -54.5 191t-215.5 49h-189v-530h619q288 0 411 94.5t123 300.5h101v-504h-1641 q-71 -15 -194 -29t-217 -14q-287 0 -511 84.5t-353.5 249t-129.5 385.5zM676 676q0 -140 28 -247t90 -190t169.5 -127t257.5 -44q126 0 251 20t160 35v1106q-35 15 -160 35t-251 20q-150 0 -257.5 -44t-169.5 -127t-90 -190t-28 -247z" />
<glyph unicode="&#x153;" horiz-adv-x="3620" d="M227 676q0 221 129.5 385.5t353.5 249t511 84.5q205 0 411 -43h1516v-467h-101q0 88 -24 152t-79.5 111.5t-150.5 71t-231 23.5h-543v-498h189q161 0 215.5 49t54.5 191h96v-586h-96q0 142 -54.5 191t-215.5 49h-189v-530h619q288 0 411 94.5t123 300.5h101v-504h-1641 q-71 -15 -194 -29t-217 -14q-287 0 -511 84.5t-353.5 249t-129.5 385.5zM676 676q0 -140 28 -247t90 -190t169.5 -127t257.5 -44q126 0 251 20t160 35v1106q-35 15 -160 35t-251 20q-150 0 -257.5 -44t-169.5 -127t-90 -190t-28 -247z" />
<glyph unicode="&#x178;" horiz-adv-x="2295" d="M41 1243v109l1096 8v-109h-306l512 -553l469 545h-303v109h746v-109h-281l-573 -672v-462h332v-109h-1051v109h332v444l-641 690h-332zM672 1704q0 63 44 107t107 44t107.5 -44t44.5 -107t-44.5 -107.5t-107.5 -44.5t-107 44.5t-44 107.5zM1352 1704q0 63 44 107t107 44 t107.5 -44t44.5 -107t-44.5 -107.5t-107.5 -44.5t-107 44.5t-44 107.5z" />
<glyph unicode="&#x192;" horiz-adv-x="2068" d="M322 -328q0 60 40 103t105 43q68 0 104.5 -28.5t36.5 -74.5q0 -30 -19.5 -58.5t-19.5 -49.5t24 -36t64 -15q147 0 158 221l39 813h-389v129h395l10 217q6 134 44 228t105.5 145.5t149 73.5t187.5 22q161 0 256.5 -65t95.5 -152q0 -61 -41 -104.5t-106 -43.5 q-71 0 -109.5 29t-38.5 76q0 31 19.5 62t19.5 53q0 21 -27 36t-67 15q-154 0 -166 -226l-16 -366h438v-129h-445l-30 -664q-5 -108 -31 -189.5t-67.5 -133.5t-102 -84.5t-128 -45t-151.5 -12.5q-170 0 -253.5 60.5t-83.5 150.5z" />
<glyph unicode="&#x2c6;" horiz-adv-x="1212" d="M37 1581l534 317h70l535 -317l-43 -86l-527 203l-526 -203z" />
<glyph unicode="&#x2da;" horiz-adv-x="1212" d="M358 1714q0 100 71 171t175 71t176 -71t72 -171t-72 -169.5t-176 -69.5t-175 69.5t-71 169.5zM463 1714q0 -62 40 -102.5t101 -40.5q62 0 103 41t41 102q0 62 -41.5 104t-102.5 42t-101 -42t-40 -104z" />
<glyph unicode="&#x2dc;" horiz-adv-x="1212" d="M41 1567q10 121 90.5 195.5t243.5 74.5q69 0 149.5 -17.5t140.5 -38t130 -38t120 -17.5q66 0 107.5 30.5t44.5 84.5h104q-20 -270 -327 -270q-86 0 -193 28t-204 56t-158 28q-66 0 -103.5 -30t-40.5 -86h-104z" />
<glyph unicode="&#x2000;" horiz-adv-x="978" />
<glyph unicode="&#x2001;" horiz-adv-x="1956" />
<glyph unicode="&#x2002;" horiz-adv-x="978" />
<glyph unicode="&#x2003;" horiz-adv-x="1956" />
<glyph unicode="&#x2004;" horiz-adv-x="652" />
<glyph unicode="&#x2005;" horiz-adv-x="489" />
<glyph unicode="&#x2006;" horiz-adv-x="326" />
<glyph unicode="&#x2007;" horiz-adv-x="326" />
<glyph unicode="&#x2008;" horiz-adv-x="244" />
<glyph unicode="&#x2009;" horiz-adv-x="391" />
<glyph unicode="&#x200a;" horiz-adv-x="108" />
<glyph unicode="&#x2010;" horiz-adv-x="1273" d="M287 549v205h700v-205h-700z" />
<glyph unicode="&#x2011;" horiz-adv-x="1273" d="M287 549v205h700v-205h-700z" />
<glyph unicode="&#x2012;" horiz-adv-x="1273" d="M287 549v205h700v-205h-700z" />
<glyph unicode="&#x2013;" horiz-adv-x="1024" d="M0 582v139h1024v-139h-1024z" />
<glyph unicode="&#x2014;" horiz-adv-x="2048" d="M0 582v139h2048v-139h-2048z" />
<glyph unicode="&#x2018;" horiz-adv-x="980" d="M240 1049q0 63 21 120.5t66.5 111.5t126.5 98t191 71l25 -88q-134 -40 -200.5 -105.5t-66.5 -142.5q0 -25 7 -39q41 29 108 29q69 0 114.5 -42t45.5 -116t-57.5 -121t-151.5 -47q-103 0 -166 70.5t-63 200.5z" />
<glyph unicode="&#x2019;" horiz-adv-x="980" d="M303 1282q0 74 57.5 121t151.5 47q103 0 166 -70t63 -200q0 -63 -21 -120.5t-66.5 -112t-126.5 -98.5t-191 -71l-25 88q134 40 200.5 105.5t66.5 142.5q0 25 -7 39q-41 -29 -108 -29q-69 0 -114.5 42t-45.5 116z" />
<glyph unicode="&#x201a;" horiz-adv-x="980" d="M276 119q0 74 57.5 121t151.5 47q103 0 166.5 -70.5t63.5 -200.5q0 -133 -96.5 -241t-309.5 -160l-24 88q134 40 200 105.5t66 142.5q0 27 -6 39q-16 -11 -47 -20t-62 -9q-69 0 -114.5 42t-45.5 116z" />
<glyph unicode="&#x201c;" horiz-adv-x="1595" d="M240 1049q0 63 21 120.5t66.5 111.5t126.5 98t191 71l25 -88q-134 -40 -200.5 -105.5t-66.5 -142.5q0 -25 7 -39q41 29 108 29q69 0 114.5 -42t45.5 -116t-57.5 -121t-151.5 -47q-103 0 -166 70.5t-63 200.5zM854 1049q0 133 96.5 241t309.5 160l24 -88 q-134 -40 -200 -105.5t-66 -142.5q0 -27 6 -39q16 11 47 20t62 9q69 0 114 -42t45 -116t-57.5 -121t-151.5 -47q-103 0 -166 70.5t-63 200.5z" />
<glyph unicode="&#x201d;" horiz-adv-x="1595" d="M303 1282q0 74 57.5 121t151.5 47q103 0 166 -70t63 -200q0 -63 -21 -120.5t-66.5 -112t-126.5 -98.5t-191 -71l-25 88q134 40 200.5 105.5t66.5 142.5q0 25 -7 39q-41 -29 -108 -29q-69 0 -114.5 42t-45.5 116zM918 1282q0 74 57 121t151 47q103 0 166.5 -70t63.5 -200 q0 -63 -21 -120.5t-66.5 -112t-127 -98.5t-191.5 -71l-24 88q134 40 200 105.5t66 142.5q0 27 -6 39q-16 -11 -47 -20t-62 -9q-69 0 -114 42t-45 116z" />
<glyph unicode="&#x201e;" horiz-adv-x="1595" d="M276 119q0 74 57.5 121t151.5 47q103 0 166.5 -70.5t63.5 -200.5q0 -133 -96.5 -241t-309.5 -160l-24 88q134 40 200 105.5t66 142.5q0 27 -6 39q-16 -11 -47 -20t-62 -9q-69 0 -114.5 42t-45.5 116zM891 119q0 74 57.5 121t151.5 47q103 0 166 -70.5t63 -200.5 q0 -63 -21 -120.5t-66.5 -111.5t-126.5 -98t-191 -71l-25 88q134 40 200 105.5t66 142.5q0 27 -6 39q-41 -29 -108 -29q-69 0 -114.5 42t-45.5 116z" />
<glyph unicode="&#x2022;" horiz-adv-x="1169" d="M221 698q0 146 106 246t259 100q152 0 257 -100t105 -246t-105 -247t-257 -101q-153 0 -259 101t-106 247z" />
<glyph unicode="&#x2026;" horiz-adv-x="2942" d="M272 133q0 74 57.5 121t162.5 47q102 0 159.5 -47.5t57.5 -120.5q0 -76 -57 -124t-160 -48q-105 0 -162.5 48t-57.5 124zM1253 133q0 74 57.5 121t162.5 47q102 0 159.5 -47.5t57.5 -120.5q0 -76 -57 -124t-160 -48q-105 0 -162.5 48t-57.5 124zM2234 133q0 74 57.5 121 t162.5 47q102 0 159.5 -47.5t57.5 -120.5q0 -76 -57 -124t-160 -48q-105 0 -162.5 48t-57.5 124z" />
<glyph unicode="&#x202f;" horiz-adv-x="391" />
<glyph unicode="&#x2039;" horiz-adv-x="1044" d="M164 686l647 467l70 -61l-314 -406l314 -405l-70 -62z" />
<glyph unicode="&#x203a;" horiz-adv-x="1044" d="M164 281l313 405l-313 406l69 61l648 -467l-648 -467z" />
<glyph unicode="&#x205f;" horiz-adv-x="489" />
<glyph unicode="&#x20ac;" horiz-adv-x="2068" d="M233 442v115h158q-8 49 -8 119q0 28 4 86h-154v115h177q29 103 89.5 188.5t140 145t176 100.5t198 60.5t205.5 19.5q99 0 202.5 -20t172 -40t81.5 -20q46 0 54 73h100v-503h-100q-18 182 -149.5 291.5t-344.5 109.5q-190 0 -307 -94.5t-152 -310.5h674l-31 -115h-655 q-2 -29 -2 -86q0 -45 4 -119h580l-31 -115h-533q21 -105 64.5 -179t104.5 -115t130.5 -59.5t155.5 -18.5q241 0 376.5 115t137.5 315h104v-545h-104q-3 43 -16 64.5t-43 21.5q-10 0 -83 -20t-179.5 -40t-198.5 -20q-137 -1 -262 27t-235.5 84t-193 151t-122.5 219h-185z" />
<glyph unicode="&#x2122;" horiz-adv-x="2521" d="M143 1108l2 244h914v-244h-70q-5 74 -50.5 122t-139.5 48h-99v-516h160v-74h-522v74h162v516h-101q-92 0 -137.5 -48t-50.5 -122h-68zM1161 688v74h160v516h-160v74h432l242 -422l264 422h371v-74h-162v-516h162v-74h-516v74h151v440l-327 -514h-37l-332 563v-489h162 v-74h-410z" />
<glyph unicode="&#x25fc;" horiz-adv-x="1351" d="M0 0v1352h1352v-1352h-1352z" />
</font>
</defs>
</svg>
